<?xml version="1.0" encoding="UTF-8" standalone="no"?>
<!-- Generator: Adobe Illustrator 19.0.0, SVG Export Plug-In . SVG Version: 6.00 Build 0)  -->

<svg
   version="1.1"
   id="Calque_1"
   x="0px"
   y="0px"
   viewBox="0 0 798 454"
   style="enable-background:new 0 0 798 454;"
   xml:space="preserve"
   sodipodi:docname="stories.svg"
   inkscape:version="1.2 (dc2aedaf03, 2022-05-15)"
   xmlns:inkscape="http://www.inkscape.org/namespaces/inkscape"
   xmlns:sodipodi="http://sodipodi.sourceforge.net/DTD/sodipodi-0.dtd"
   xmlns="http://www.w3.org/2000/svg"
   xmlns:svg="http://www.w3.org/2000/svg"><defs
   id="defs41" /><sodipodi:namedview
   id="namedview39"
   pagecolor="#505050"
   bordercolor="#eeeeee"
   borderopacity="1"
   inkscape:showpageshadow="0"
   inkscape:pageopacity="0"
   inkscape:pagecheckerboard="0"
   inkscape:deskcolor="#505050"
   showgrid="false"
   inkscape:zoom="1.641604"
   inkscape:cx="407.83282"
   inkscape:cy="233.00382"
   inkscape:window-width="1920"
   inkscape:window-height="991"
   inkscape:window-x="-9"
   inkscape:window-y="951"
   inkscape:window-maximized="1"
   inkscape:current-layer="Calque_1" />
<style
   type="text/css"
   id="style2">
	.st0{opacity:0.2;}
</style>


<g
   id="g282"
   transform="matrix(1.309624,0,0,1.3132639,251.89237,3.2750551)"><path
     style="fill:#feecb4"
     d="m 37,106.48767 c 0,-34.002232 0.274056,-43.620921 1.25,-43.871915 2.478094,-0.637316 31.41694,-10.430647 38.687644,-13.092467 6.124162,-2.242068 8.700779,-2.659151 14.5902,-2.361749 8.685546,0.4386 14.026986,3.4902 18.525616,10.583806 L 113,62.391561 v 43.513949 43.51394 l -3.22328,-4.63106 c -5.83841,-8.38836 -14.101794,-11.86649 -24.491122,-10.30851 -2.592921,0.38883 -9.005421,2.40315 -14.25,4.47625 -9.609371,3.79845 -26.194225,9.35139 -31.285598,10.47505 L 37,150.0381 Z"
     id="path296" /><path
     style="fill:#fde086"
     d="m 183.5,149.32038 c -4.34568,-0.97261 -15.60098,-4.8009 -27.5,-9.35363 -6.875,-2.63047 -14.62157,-5.0978 -17.21459,-5.48295 -9.29706,-1.38091 -19.13358,3.12023 -23.89992,10.93647 -1.85552,3.04285 -1.87806,2.55071 -1.88175,-41.09253 L 113,60.155479 l 3.25,-4.251568 c 1.7875,-2.338362 5.275,-5.336366 7.75,-6.662231 3.9579,-2.120259 5.46373,-2.357794 12.5,-1.971798 6.3637,0.349101 10.04538,1.263086 18,4.468535 10.06485,4.055803 27.2852,9.870304 31,10.467242 1.95997,0.314951 2.00521,1.196807 2.26051,44.057861 0.20671,34.70322 1.7e-4,43.71252 -1,43.62048 C 186.06723,149.8202 184.6,149.56657 183.5,149.32038 Z M 85.8125,134.31689 c 0.721875,-0.28887 1.584375,-0.25335 1.916667,0.0789 0.332291,0.33229 -0.258334,0.56864 -1.3125,0.52522 -1.164943,-0.048 -1.4019,-0.28494 -0.604167,-0.60416 z"
     id="path294" /><path
     style="fill:#fec518"
     d="m 38,153.64842 c 0,-3.27447 0.148066,-3.39166 6.435899,-5.0937 3.539745,-0.95816 11.302245,-3.54119 17.25,-5.74007 C 67.633655,140.61578 74.975,137.9026 78,136.78536 c 7.157389,-2.64348 17.227581,-2.80582 22,-0.35467 7.35806,3.77917 13,11.38687 13,17.52947 V 157 H 75.5 38 Z m 98.8125,-19.33153 c 0.72187,-0.28887 1.58437,-0.25335 1.91667,0.0789 0.33229,0.33229 -0.25834,0.56864 -1.3125,0.52522 -1.16495,-0.048 -1.4019,-0.28494 -0.60417,-0.60416 z"
     id="path292" /><path
     style="fill:#e6618e;fill-opacity:1"
     d="m 102.8125,224.31689 c 0.72187,-0.28887 1.58437,-0.25335 1.91667,0.0789 0.33229,0.33229 -0.25834,0.56864 -1.3125,0.52522 -1.16495,-0.048 -1.4019,-0.28494 -0.60417,-0.60416 z m 17.45653,-0.01 c 0.97297,-0.25354 2.32297,-0.23687 3,0.0371 0.67703,0.27393 -0.11903,0.48137 -1.76903,0.46099 -1.65,-0.0204 -2.20394,-0.2445 -1.23097,-0.49804 z m -25.45653,-0.99 c 0.721875,-0.28887 1.584375,-0.25335 1.916667,0.0789 0.332291,0.33229 -0.258334,0.56864 -1.3125,0.52522 -1.164943,-0.048 -1.4019,-0.28494 -0.604167,-0.60416 z M 40.872445,199.25 c -1.243871,-1.58606 -1.208501,-1.62143 0.377555,-0.37756 0.9625,0.75485 1.75,1.54235 1.75,1.75 0,0.82304 -0.821186,0.29331 -2.127555,-1.37244 z M 32.452948,191.75 28.5,187.5 l 4.25,3.95295 c 3.952458,3.6762 4.709525,4.54705 3.952948,4.54705 -0.163379,0 -2.075879,-1.9125 -4.25,-4.25 z M 191.5,192 c 2.14824,-2.2 4.1309,-4 4.4059,-4 0.275,0 -1.25766,1.8 -3.4059,4 -2.14824,2.2 -4.1309,4 -4.4059,4 -0.275,0 1.25766,-1.8 3.4059,-4 z M 24.872445,183.25 c -1.243871,-1.58606 -1.208501,-1.62143 0.377555,-0.37756 0.9625,0.75485 1.75,1.54235 1.75,1.75 0,0.82304 -0.821186,0.29331 -2.127555,-1.37244 z M 1.0789474,129.41667 c 0.047984,-1.16495 0.2849403,-1.4019 0.6041666,-0.60417 0.2888706,0.72187 0.2533443,1.58437 -0.078947,1.91667 -0.3322917,0.33229 -0.5686404,-0.25834 -0.5252196,-1.3125 z M 0.28601415,119.5 c 0.007508,-2.75 0.2017127,-3.75631 0.43156708,-2.23625 0.22985437,1.52006 0.22371186,3.77006 -0.01365,5 C 0.46656929,123.49369 0.27850662,122.25 0.28601415,119.5 Z m 223.90893585,2 c 0.0204,-1.65 0.2445,-2.20394 0.49804,-1.23097 0.25354,0.97297 0.23687,2.32297 -0.0371,3 -0.27393,0.67703 -0.48137,-0.11903 -0.46099,-1.76903 z M 0.28601415,105.5 c 0.007508,-2.75 0.2017127,-3.75631 0.43156708,-2.23625 0.22985437,1.52006 0.22371186,3.77006 -0.01365,5 C 0.46656929,109.49369 0.27850662,108.25 0.28601415,105.5 Z m 223.90893585,-2 c 0.0204,-1.65 0.2445,-2.20394 0.49804,-1.23097 0.25354,0.97297 0.23687,2.32297 -0.0371,3 -0.27393,0.67703 -0.48137,-0.11903 -0.46099,-1.76903 z M 1.0789474,95.416667 c 0.047984,-1.164943 0.2849403,-1.4019 0.6041666,-0.604167 0.2888706,0.721875 0.2533443,1.584375 -0.078947,1.916667 -0.3322917,0.332291 -0.5686404,-0.258334 -0.5252196,-1.3125 z m 222.0000026,0 c 0.048,-1.164943 0.28494,-1.4019 0.60416,-0.604167 0.28887,0.721875 0.25335,1.584375 -0.0789,1.916667 -0.3323,0.332291 -0.56864,-0.258334 -0.52522,-1.3125 z M 182.8125,61.316886 c 0.72187,-0.288871 1.58437,-0.253344 1.91667,0.07895 0.33229,0.332292 -0.25834,0.568641 -1.3125,0.52522 -1.16495,-0.04798 -1.4019,-0.284941 -0.60417,-0.604167 z M 87.75,46.294267 c 1.2375,-0.238353 3.2625,-0.238353 4.5,0 1.2375,0.238353 0.225,0.433369 -2.25,0.433369 -2.475,0 -3.4875,-0.195016 -2.25,-0.433369 z m 45,0 c 1.2375,-0.238353 3.2625,-0.238353 4.5,0 1.2375,0.238353 0.225,0.433369 -2.25,0.433369 -2.475,0 -3.4875,-0.195016 -2.25,-0.433369 z M 24,42.622445 c 0,-0.207656 0.7875,-0.995156 1.75,-1.75 C 27.336056,39.628574 27.371426,39.663944 26.127555,41.25 24.821186,42.915748 24,43.445479 24,42.622445 Z M 198.87244,41.25 c -1.24387,-1.586056 -1.2085,-1.621426 0.37756,-0.377555 0.9625,0.754844 1.75,1.542344 1.75,1.75 0,0.823034 -0.82119,0.293303 -2.12756,-1.372445 z M 32.5,33 c 2.148243,-2.2 4.130896,-4 4.405896,-4 0.275,0 -1.257653,1.8 -3.405896,4 -2.148243,2.2 -4.130896,4 -4.405896,4 -0.275,0 1.257653,-1.8 3.405896,-4 z M 191.45295,32.75 187.5,28.5 l 4.25,3.952948 C 195.70246,36.12915 196.45953,37 195.70295,37 c -0.16338,0 -2.07588,-1.9125 -4.25,-4.25 z M 40,26.622445 c 0,-0.207656 0.7875,-0.995156 1.75,-1.75 C 43.336056,23.628574 43.371426,23.663944 42.127555,25.25 40.821186,26.915748 40,27.445479 40,26.622445 Z M 182.87244,25.25 C 181.62857,23.663944 181.66394,23.628574 183.25,24.872445 184.91575,26.178814 185.44548,27 184.62244,27 c -0.20765,0 -0.99515,-0.7875 -1.75,-1.75 z M 94.8125,1.316886 c 0.721875,-0.2888706 1.584375,-0.2533443 1.916667,0.078947 0.332291,0.3322917 -0.258334,0.5686404 -1.3125,0.5252193 -1.164943,-0.047984 -1.4019,-0.28494 -0.604167,-0.6041663 z m 34,0 c 0.72187,-0.2888706 1.58437,-0.2533443 1.91667,0.078947 0.33229,0.3322917 -0.25834,0.5686404 -1.3125,0.5252193 -1.16495,-0.047984 -1.4019,-0.2849403 -0.60417,-0.6041663 z M 103.75,0.29426699 c 1.2375,-0.23835289 3.2625,-0.23835289 4.5,0 1.2375,0.2383529 0.225,0.4333689 -2.25,0.4333689 -2.475,0 -3.4875,-0.195016 -2.25,-0.4333689 z m 13,0 c 1.2375,-0.23835289 3.2625,-0.23835289 4.5,0 1.2375,0.2383529 0.225,0.4333689 -2.25,0.4333689 -2.475,0 -3.4875,-0.195016 -2.25,-0.4333689 z"
     id="path290" /><path
     style="fill:#e1a50e"
     d="m 37.252183,153.5 c 0.0111,-2.2 0.215885,-2.98225 0.455078,-1.73834 0.239193,1.24391 0.230112,3.04391 -0.02018,4 C 37.436788,156.71775 37.241084,155.7 37.252183,153.5 Z M 113,152.65004 c 0,-3.23988 0.76052,-5.39982 2.98015,-8.46394 3.68499,-5.08697 6.76306,-7.15307 13.10909,-8.79921 6.9218,-1.79549 13.12449,-0.55846 30.24219,6.03133 7.89692,3.04007 17.57629,6.32713 21.5097,7.30459 7.03589,1.74842 7.15172,1.8298 7.15526,5.02719 L 188,157 H 150.5 113 Z"
     id="path288" /><path
     style="fill:#e6618e;fill-opacity:1"
     d="M 91,222.51498 C 46.109008,213.55689 10.828372,178.02286 2.4331099,133.31199 0.37236775,122.33704 0.33607222,102.25734 2.3582771,91.912426 11.310365,46.116566 46.091894,11.333616 91.912426,2.3546199 c 9.849654,-1.93013962 31.325494,-1.93013962 41.175144,0 45.54793,8.9255761 80.85008,44.0555671 89.40864,88.9726031 l 1.32971,6.978619 -18.16296,-18.070015 c -17.90356,-17.811946 -18.2521,-18.092295 -24.40461,-19.63009 -3.43291,-0.858042 -13.40174,-4.249058 -22.15296,-7.535591 -18.74588,-7.04004 -23.64444,-7.927481 -31.36681,-5.682526 -4.43729,1.289954 -6.51041,2.676465 -10.45468,6.992124 l -4.91986,5.383109 -4.73302,-5.368317 C 103.7697,50.014922 101.86926,48.727156 97.312305,47.402412 89.551479,45.146279 84.669862,46.019076 66.151187,52.973789 57.54108,56.207327 47.459746,59.615743 43.748223,60.548048 L 37,62.243147 v 47.122993 47.12299 l 33.744485,33.75543 c 32.467075,32.47762 33.612205,33.75188 30.249995,33.66147 C 99.072518,223.85435 94.575,223.22838 91,222.51498 Z"
     id="path286" /><path
     style="display:inline;fill:#c92a56;fill-opacity:1"
     d="M 105.5,224.07699 C 104.4,223.57438 88.652557,208.27645 70.505682,190.08158 L 37.511364,157 H 112.75568 188 V 109.76042 62.520837 l 17.87221,17.851523 17.87221,17.851523 0.66588,7.348187 c 2.76689,30.53365 -11.42829,66.29113 -35.16901,88.59036 -15.29611,14.36735 -33.86417,23.94434 -54.74129,28.23434 -9.01293,1.85205 -26.41703,2.86042 -29,1.68022 z"
     id="path284" /></g><text
   xml:space="preserve"
   style="font-style:normal;font-variant:normal;font-weight:bold;font-stretch:normal;font-size:231.418px;font-family:'Comic Sans MS';-inkscape-font-specification:'Comic Sans MS Bold';fill:#c92a56;fill-opacity:1;stroke-width:1.02096"
   x="-3.2350442"
   y="428.92145"
   id="text362"
   transform="scale(0.99861324,1.0013887)"><tspan
     sodipodi:role="line"
     id="tspan360"
     x="-3.2350442"
     y="428.92145"
     style="font-style:normal;font-variant:normal;font-weight:bold;font-stretch:normal;font-size:231.418px;font-family:'Comic Sans MS';-inkscape-font-specification:'Comic Sans MS Bold';stroke-width:1.02096">Stories</tspan></text></svg>
