<?xml version="1.0" encoding="UTF-8" standalone="no"?>
<svg
   width="2000px"
   height="566px"
   viewBox="0 0 2000 566"
   version="1.1"
   id="svg9"
   sodipodi:docname="fresh2.svg"
   inkscape:version="1.2 (dc2aedaf03, 2022-05-15)"
   xmlns:inkscape="http://www.inkscape.org/namespaces/inkscape"
   xmlns:sodipodi="http://sodipodi.sourceforge.net/DTD/sodipodi-0.dtd"
   xmlns="http://www.w3.org/2000/svg"
   xmlns:svg="http://www.w3.org/2000/svg">
  <defs
     id="defs13" />
  <sodipodi:namedview
     id="namedview11"
     pagecolor="#505050"
     bordercolor="#eeeeee"
     borderopacity="1"
     inkscape:showpageshadow="0"
     inkscape:pageopacity="0"
     inkscape:pagecheckerboard="0"
     inkscape:deskcolor="#505050"
     showgrid="false"
     inkscape:zoom="0.35355339"
     inkscape:cx="1409.9709"
     inkscape:cy="311.12698"
     inkscape:window-width="1360"
     inkscape:window-height="697"
     inkscape:window-x="308"
     inkscape:window-y="-8"
     inkscape:window-maximized="1"
     inkscape:current-layer="svg9" />
  <g
     id="surface1"
     transform="scale(1.0014142,1)">
    <path
       style="fill:#fafaf8;fill-opacity:1;fill-rule:evenodd;stroke:none"
       d="m 0,282.58594 v 282.29687 h 125 c 119.81641,0 125,-0.0625 125,-1.5 0,-3.11328 -1.60156,-3.5039 -14.23438,-3.5039 -12.13671,0 -12.24609,-0.0156 -13.60546,-2.08204 -1.29688,-1.97656 -1.76954,-2.08593 -9.10938,-2.08593 -7.63281,0 -7.76562,-0.0391 -9.58203,-2.50391 -1.71875,-2.32031 -2.23438,-2.5 -7.14844,-2.5 -4.73047,0 -5.4414,-0.22266 -6.66015,-2.08984 -0.9961,-1.52344 -2.09766,-2.07422 -4.125,-2.07422 -2.01563,0 -3.35938,-0.67969 -4.98047,-2.50781 -2.03907,-2.27735 -2.70313,-2.50391 -7.50782,-2.50391 -4.82421,0 -5.36328,-0.17969 -6.23046,-2.08594 -0.76563,-1.6914 -1.54297,-2.08203 -4.11329,-2.08203 -2.47265,0 -3.64453,-0.54687 -5.35937,-2.50391 -1.51563,-1.72656 -2.96094,-2.5 -4.66797,-2.5 -2.30078,0 -5.21484,-2.30078 -10,-7.91406 -0.58984,-0.69531 -2.36328,-1.26172 -3.94141,-1.26172 -2.13671,0 -3.20703,-0.53125 -4.22656,-2.08593 -1.01562,-1.55469 -2.10156,-2.08204 -4.21484,-2.08204 -2.48438,0 -3.73047,-0.91406 -9.71094,-7.08984 -5.52344,-5.70312 -7.34375,-7.09375 -9.29297,-7.09375 -1.92968,0 -3.85937,-1.41016 -9.35156,-6.875 -8.625,-8.58594 -7.640625,-7.59375 -15.054688,-15.01562 -3.433593,-3.44141 -6.675781,-6.67188 -7.1875,-7.17969 -0.515624,-0.51563 -3.730468,-3.7461 -7.128906,-7.19922 -3.402344,-3.44141 -6.5,-6.25781 -6.875,-6.25781 -0.382812,0 -0.695312,-1.39844 -0.695312,-3.10547 0,-2.81641 -0.675782,-3.77735 -7.078125,-9.98438 -6.164063,-5.98437 -7.085938,-7.24218 -7.085938,-9.72265 0,-2.11719 -0.53125,-3.19922 -2.082031,-4.21485 -1.492188,-0.98437 -2.085938,-2.11328 -2.085938,-4.01172 0,-2.11328 -0.914062,-3.51171 -4.582031,-7.00781 C 38.476562,420.81641 37.5,419.33203 37.5,417.32812 c 0,-1.78125 -0.753906,-3.21875 -2.503906,-4.77734 C 33.195312,410.93359 32.5,409.57031 32.5,407.60156 c 0,-1.90234 -0.617188,-3.20703 -2.085938,-4.36328 -1.808593,-1.41797 -2.074218,-2.30078 -2.074218,-6.65625 0,-4.55078 -0.242188,-5.21484 -2.507813,-7.11719 -1.910156,-1.61718 -2.496093,-2.80468 -2.496093,-5.05859 0,-2.23047 -0.507813,-3.29297 -2.082032,-4.32422 -1.867187,-1.21875 -2.085937,-1.93359 -2.085937,-6.66406 0,-4.92578 -0.179688,-5.4336 -2.503907,-7.15625 -2.445312,-1.8125 -2.5,-2 -2.5,-9.1875 0,-7.10938 -0.07812,-7.41406 -2.496093,-9.57813 l -2.503907,-2.22265 v -11.9336 c 0,-11.8164 -0.015624,-11.94922 -2.078124,-13.30468 L 5.003906,318.66797 V 251.5 l 2.082032,-1.36719 c 2.0625,-1.34765 2.078124,-1.48047 2.078124,-13.375 0,-12.4414 -0.085937,-12.09765 3.730469,-15.29687 0.964844,-0.8125 1.269531,-2.83594 1.269531,-8.39063 0,-7.16406 0.05469,-7.35156 2.5,-9.16406 2.308594,-1.70703 2.503907,-2.25391 2.503907,-6.94531 0,-4.36328 0.296875,-5.3711 2.085937,-7.02344 1.417969,-1.32031 2.082032,-2.81641 2.082032,-4.73047 0,-2.14453 0.585937,-3.23047 2.496093,-4.66016 2.320313,-1.70703 2.507813,-2.22265 2.507813,-7.14062 0,-4.73828 0.21875,-5.44922 2.074218,-6.67188 1.53125,-1 2.085938,-2.10156 2.085938,-4.1289 0,-2.01563 0.679688,-3.35547 2.496094,-4.98828 1.765625,-1.57032 2.503906,-2.98828 2.503906,-4.81641 0,-2.04297 0.953125,-3.49609 4.582031,-6.95312 3.644531,-3.48047 4.582031,-4.91016 4.582031,-6.98438 0,-1.85937 0.601563,-2.99609 2.085938,-3.97266 1.542969,-1.00781 2.082031,-2.10156 2.082031,-4.19921 0,-2.45704 0.945313,-3.76172 7.085938,-9.78125 6.207031,-6.08594 7.078125,-7.30469 7.078125,-9.85547 0,-2.23828 0.476562,-3.16016 2.078125,-4.01172 1.140625,-0.61719 2.261719,-1.75 2.511719,-2.51172 0.242187,-0.77344 1.28125,-1.875 2.304687,-2.45312 1.019531,-0.57813 3.167969,-2.660161 4.773437,-4.625005 1.609376,-1.984375 3.730469,-3.988281 4.722657,-4.464844 0.992187,-0.476562 2.046875,-1.640625 2.351562,-2.585937 0.292969,-0.941406 0.847657,-1.714844 1.222657,-1.714844 0.601562,0 4.675781,-3.847656 8.523437,-8.0625 0.773437,-0.84375 1.898437,-1.960938 2.496094,-2.476562 0.609375,-0.511719 1.726562,-1.636719 2.5,-2.496094 0.773437,-0.867188 2.832031,-2.964844 4.589841,-4.675782 1.7461,-1.707031 3.66797,-3.683593 4.25391,-4.378906 0.58984,-0.691406 2.26172,-1.261718 3.71484,-1.261718 2.20703,0 3.71485,-1.132813 9.44922,-7.09375 6.01172,-6.246094 7.16406,-7.089844 9.73438,-7.089844 2.1914,0 3.26171,-0.515625 4.28515,-2.082032 0.9961,-1.53125 2.10547,-2.085937 4.1211,-2.085937 2.26953,0 3.49609,-0.808594 6.98437,-4.585937 3.42578,-3.707032 4.74609,-4.589844 6.89063,-4.589844 1.89453,0 3.26171,-0.703125 4.83984,-2.5 1.58203,-1.800782 2.94141,-2.503906 4.86719,-2.503906 1.85156,0 3.17187,-0.632813 4.30859,-2.082032 1.41406,-1.796875 2.3125,-2.085937 6.51953,-2.101562 5.38281,-0.01563 6.25,-0.359375 7.70313,-3.105469 0.76562,-1.46875 1.70703,-1.882813 4.26953,-1.882813 2.58203,0 3.57422,-0.441406 4.64844,-2.082031 1.21875,-1.867187 1.92968,-2.09375 6.66015,-2.09375 4.91406,0 5.42969,-0.167969 7.14844,-2.496093 1.81641,-2.464844 1.95703,-2.503907 9.54297,-2.503907 7.61328,0 7.72656,-0.03125 9.48437,-2.5 l 1.78907,-2.503906 h 12.34375 c 12.24609,0 12.35546,-0.015625 13.71484,-2.082031 1.28125,-1.960938 1.78516,-2.085938 8.78125,-2.085938 5.63281,0 7.74219,-0.3125 8.73047,-1.3125 C 271.72656,0.109375 278.05078,0.28125 134.58594,0.28125 H 0 V 282.58594 M 1699.168,1.171875 c 0,3.996094 0.5859,4.113281 20.8711,4.113281 h 19.1445 l 1.8086,2.085938 c 1.7344,1.996094 2.2031,2.082031 11.5039,2.082031 h 9.6875 l 1.8477,2.503906 c 1.8203,2.460938 1.9921,2.5 9.2968,2.5 5.668,0 7.6953,0.304688 8.5157,1.277344 2.9882,3.570313 3.3476,3.722656 8.3046,3.722656 4.3711,0 5.2422,0.28125 6.6641,2.09375 1.4375,1.824219 2.2852,2.082031 6.8438,2.082031 4.8085,0 5.332,0.1875 7.039,2.507813 1.4063,1.894531 2.5156,2.496094 4.5899,2.496094 1.8906,0 3.3164,0.65625 4.5586,2.085937 1.1796,1.355469 2.6835,2.082032 4.3085,2.082032 1.7266,0 3.1915,0.78125 4.7305,2.503906 1.707,1.921875 2.9336,2.5 5.2891,2.5 2.4609,0 3.25,0.414062 4.0039,2.089844 0.7812,1.710937 1.5469,2.085937 4.2461,2.085937 2.7109,0 3.6133,0.445313 5.0742,2.496094 1.3594,1.90625 2.4336,2.503906 4.4961,2.503906 1.7461,0 3.3086,0.664063 4.4101,1.875 0.9297,1.039063 2.4024,2.503906 3.2696,3.277344 0.8672,0.773437 2.0586,1.992187 2.6523,2.714843 0.5938,0.71875 2.211,1.3125 3.5977,1.3125 2.0703,0 3.7851,1.273438 9.4765,7.078126 5.6407,5.769531 7.3985,7.09375 9.4258,7.09375 3.7344,0 36.8399,33.148442 36.8399,36.886722 0,2.01172 1.2734,3.72265 6.6718,8.98437 5.3477,5.21094 6.668,6.97656 6.668,8.94141 0,1.67969 0.793,3.16406 2.4961,4.68359 1.375,1.22656 2.4961,2.54688 2.4961,2.91797 0,0.375 0.9453,1.1875 2.0859,1.80469 1.6602,0.89062 2.0821,1.75781 2.0821,4.24609 0,2.54297 0.4765,3.48828 2.5,4.92578 1.9023,1.35547 2.5039,2.4336 2.5039,4.50391 0,1.80859 0.6875,3.36328 2.082,4.67187 1.4063,1.32032 2.0859,2.85157 2.0859,4.70703 0,2.08594 0.6016,3.19141 2.4961,4.59766 1.8828,1.39063 2.5078,2.51953 2.5078,4.55078 0,2.52735 0.4219,3.20703 3.7149,5.98438 0.7109,0.58593 1.2773,2.36718 1.2773,3.9414 0,2.14063 0.5313,3.20703 2.086,4.23047 1.8554,1.21875 2.082,1.9375 2.082,6.63281 0,4.90235 0.1719,5.39454 2.5,7.05079 2.332,1.66796 2.4961,2.14453 2.4961,7.13281 0,4.77734 0.2266,5.47656 2.0937,6.70312 1.9571,1.28907 2.0743,1.78907 2.0743,8.85938 0,7.26562 0.078,7.53906 2.4961,9.67578 l 2.5078,2.19531 v 9.75391 c 0,9.28906 0.094,9.82031 1.9804,11.27734 l 1.9844,1.53125 1.0274,70.46094 -2.4961,2.23047 -2.4961,2.22656 v 9.84766 c 0,9.58593 -0.055,9.89062 -2.086,11.21484 -1.9648,1.28906 -2.082,1.79688 -2.082,8.71875 0,7.4375 -0.031,7.52344 -3.7227,10.62891 -0.8984,0.75781 -1.2812,2.64062 -1.2812,6.43359 0,4.71484 -0.2266,5.47656 -1.8711,6.34375 -2.7656,1.46094 -3.1016,2.3125 -3.1094,7.94531 -0.016,4.52735 -0.2578,5.26953 -2.0976,6.48828 -1.5157,0.98829 -2.086,2.09766 -2.086,4.07032 0,1.97656 -0.6836,3.32031 -2.4961,4.91015 -1.8789,1.65625 -2.4961,2.91797 -2.4961,5.09766 0,2.16797 -0.5312,3.23828 -2.0937,4.26172 -1.5273,1.00781 -2.082,2.09765 -2.082,4.1289 0,2.01172 -0.6719,3.36329 -2.5,4.99219 -1.8399,1.64063 -2.4961,2.96875 -2.4961,5.04297 0,2.08594 -0.5469,3.17578 -2.0821,4.18359 -1.539,1.00782 -2.0859,2.10157 -2.0859,4.14454 0,2.28515 -0.8125,3.54296 -4.5898,7.11718 -3.6133,3.42578 -4.5743,4.87891 -4.5743,6.89844 0,2.125 -1.2226,3.74219 -7.0859,9.41406 -6.3672,6.15625 -7.0859,7.16407 -7.0859,9.92188 0,2.41797 -0.4141,3.2539 -1.9883,3.97265 -1.0938,0.4961 -2.3828,1.76954 -2.8672,2.83204 -0.4766,1.05468 -1.5508,2.16015 -2.3867,2.45703 -0.8281,0.29687 -2.8164,2.16406 -4.4258,4.16015 -1.6016,1.99219 -3.7539,4.09766 -4.7773,4.67578 -1.0196,0.57813 -2.0743,1.63672 -2.3399,2.3711 -0.2734,0.72656 -2.3203,2.82812 -4.543,4.66015 -2.2304,1.83594 -4.2851,3.97266 -4.5742,4.75391 -0.2812,0.78125 -1.1836,1.62891 -2.0039,1.88672 -0.8203,0.26562 -1.9922,1.40625 -2.6015,2.54687 -0.8477,1.59766 -1.7696,2.06641 -4.0118,2.06641 -2.5429,0 -3.7695,0.88281 -9.8476,7.09375 -5.5821,5.69922 -7.4141,7.08984 -9.3828,7.08984 -1.8477,0 -3.5352,1.10547 -6.9844,4.58594 -3.543,3.56641 -5.1133,4.58985 -7.1016,4.58985 -1.8828,0 -3.0117,0.64843 -4.332,2.5 -1.4063,1.97265 -2.4023,2.5039 -4.7305,2.5039 -2.1445,0 -3.3867,0.55469 -4.582,2.08203 -1.1602,1.48438 -2.4414,2.08594 -4.4297,2.08594 -2.6172,0 -3.3047,0.42188 -6.082,3.72266 -0.586,0.70312 -2.3242,1.28125 -3.8555,1.28125 -2.0586,0 -3.1523,0.54297 -4.1601,2.08203 -1,1.53125 -2.0977,2.09375 -4.1211,2.09375 -2.0118,0 -3.3633,0.66015 -4.9883,2.49609 -2.0352,2.27735 -2.6914,2.50391 -7.5,2.50391 -4.8203,0 -5.3594,0.17969 -6.2266,2.07812 -0.875,1.91797 -1.3984,2.08985 -6.3828,2.08985 -4.9805,0 -5.6055,0.20312 -7.6484,2.5 -2.1719,2.4414 -2.4297,2.5039 -9.9219,2.5039 -7.7109,0 -8.7031,0.39063 -8.7031,3.40235 0,0.46093 46.8672,0.76562 117.9218,0.76562 H 2000 V 0.28125 h -150.4102 c -105.9101,0 -150.4218,0.265625 -150.4218,0.890625 M 275.73828,96.140625 c -4.20703,2.644531 -7.39062,6.187505 -7.4375,8.296875 -0.0156,0.73438 -0.57031,2.07422 -1.24609,2.96484 -0.96094,1.27344 -1.21875,4.55079 -1.21875,15.21875 0,15.55469 -0.29688,16.30469 -6.78907,17.34375 -5.89453,0.94141 -21.58984,5.26563 -23.51562,6.48438 -0.98438,0.625 -3.40234,1.60156 -5.39453,2.16797 -4.42578,1.28906 -18.31641,8.95312 -25.6836,14.16797 -7.69531,5.4375 -8.34375,5.20312 -19.44921,-7.08594 -14.07422,-15.57031 -27.69922,-15.80469 -35.0586,-0.59375 -4.43359,9.16015 -1.85937,14.35937 16.35547,32.93359 5.38672,5.48047 5.40234,6.26172 0.35938,13.3086 -1.77735,2.48046 -4.53516,7.13281 -6.13282,10.34765 -5.88672,11.82422 -8.02343,16.55469 -8.02343,17.67969 0,0.63281 -0.78125,2.66797 -1.73438,4.53516 -0.94141,1.85546 -2.22266,5.875 -2.83203,8.92578 -4.58203,22.71093 -3.71484,21.8164 -21.03906,21.8164 -15.30078,0 -17.49219,0.53125 -21.59766,5.20313 -7.445311,8.49219 -6.171874,21.08203 2.83203,27.96484 2.96094,2.25781 3.10938,2.28125 18.04688,2.53906 17.26953,0.30079 17.47265,0.37891 18.34765,6.99219 0.3125,2.33985 1.0625,5.23438 1.67969,6.42969 0.60547,1.1875 1.50391,4.73047 1.99609,7.875 0.48438,3.13672 1.40625,6.51562 2.05469,7.5 0.64453,0.99219 1.82422,4.03516 2.61328,6.75781 0.79688,2.73438 2.16016,5.87891 3.03516,6.9961 0.88281,1.11328 1.60156,2.82421 1.60156,3.79296 0.0156,0.97266 0.5625,2.69922 1.23047,3.84766 0.67188,1.14453 1.82813,3.38672 2.57813,4.97656 0.74218,1.59375 2.08984,3.84766 2.98046,5.00391 8.28125,10.76172 8.39063,10.29687 -6.26562,25.45312 -12.43359,12.83594 -13.00391,23.77344 -1.67969,31.98047 8.04688,5.83203 16.32813,4.10547 25.13281,-5.24218 14.10938,-14.96875 15.59375,-15.83594 20.89063,-12.21485 19.96484,13.66406 31.57812,18.79297 54.28906,23.96094 9.32813,2.12109 8.94531,1.40234 9.34375,17.57422 0.51563,21.22265 6.20313,30.29297 18.34766,29.27734 12.15234,-1.01562 15.96875,-7.5625 16.33594,-28.01172 0.3125,-17.38281 0.0703,-16.82812 8.0625,-18.39453 8.8125,-1.73437 20.13671,-4.98047 23.3125,-6.6914 1.83593,-0.98047 3.89453,-1.80079 4.58984,-1.81641 2.54297,-0.0469 21.08594,-10.53516 28.25391,-15.97656 4.08984,-3.10547 6.85937,-2.11719 13.5625,4.84765 12.43359,12.91407 14.40625,14.46875 19.6289,15.45313 17.77344,3.3164 26.23828,-18.32031 12.6836,-32.42188 -16.64063,-17.32031 -16.35157,-16.38281 -8.70313,-27.68359 2.62109,-3.86328 5.25391,-8.36719 5.85547,-10.00391 0.59766,-1.64843 1.87109,-4.55859 2.82422,-6.49609 0.96094,-1.92578 1.73828,-3.95703 1.73828,-4.51563 0,-0.5625 0.52344,-1.60937 1.17187,-2.33593 1.45313,-1.63672 6.02735,-16.71875 7.60157,-25.08203 1.78906,-9.45313 1.85937,-9.64844 4.16015,-10.70313 1.35157,-0.61719 7.00782,-0.97266 15.24219,-0.97266 15.10938,0 16.66406,-0.49218 22.19922,-7.02734 6.53906,-7.71875 4.88281,-18.48828 -3.91016,-25.56641 l -3.55468,-2.84765 -13.74219,-0.25 c -7.5625,-0.14063 -14.76563,-0.65625 -16.01563,-1.14063 -2.54297,-0.99218 -2.6914,-1.32812 -4.0664,-9.46093 -0.53907,-3.20704 -1.53125,-7.33594 -2.19922,-9.16797 -0.66406,-1.83594 -1.74219,-5.51172 -2.38281,-8.16407 -0.64844,-2.65625 -2.10547,-6.59765 -3.25391,-8.75 -1.14844,-2.16015 -2.08984,-4.30078 -2.10547,-4.76171 -0.0156,-0.46875 -1.14062,-3.08204 -2.50781,-5.82032 -1.35547,-2.75 -2.47266,-5.41797 -2.47266,-5.94922 0,-0.53125 -0.58594,-1.44921 -1.3125,-2.05078 -0.71875,-0.59375 -2.02734,-2.42968 -2.91797,-4.0664 -0.88281,-1.63282 -2.33984,-3.91016 -3.23047,-5.0586 -4.2539,-5.47656 -3.61328,-7.21093 6.64063,-18.05859 14.17969,-15 16.125,-25.65625 6.20703,-33.95313 -10.09375,-8.4414 -16.34375,-6.61718 -31.63281,9.21875 -9.82813,10.17579 -10.40625,10.33985 -18.13281,5.00391 -8.74219,-6.03516 -23.1875,-13.87109 -25.62891,-13.90234 -0.69531,-0.008 -2.63281,-0.7461 -4.29297,-1.64453 -3.04297,-1.625 -11.28516,-3.97266 -23.45312,-6.6875 -8.46875,-1.88282 -7.91407,-0.65625 -8.25782,-18.36719 -0.28906,-15.10938 -0.34375,-15.50781 -2.59765,-19.33984 -5.14453,-8.726568 -14.50391,-11.480474 -22.31641,-6.562505 m -11.63672,88.144535 c 1.96875,2.5 2.72656,45.2539 0.86719,48.73437 -1.91016,3.58203 -3.65234,2.11328 -29.26563,-24.82031 -5.48046,-5.75781 -7.97656,-10.41016 -6.30078,-11.73828 3.72266,-2.96485 19.44922,-10.30078 24.57813,-11.46485 3.30078,-0.75 6.21094,-1.70703 6.47656,-2.13672 0.78906,-1.28906 1.83594,-0.875 3.64453,1.42579 m 48.45313,0.46093 c 10.72265,2.88672 25.30468,10.69141 25.60547,13.70703 0.28125,2.73047 -8.51172,12.4375 -31.9961,35.3086 -5.03515,4.89844 -5.49609,2.57422 -5.16797,-26.32031 0.26563,-23.61719 0.67188,-26.1836 3.92578,-24.91016 0.73438,0.28906 4.16797,1.27734 7.63282,2.21484 M 204.875,227.47656 c 1.26172,0.64844 3.92578,2.9961 5.91406,5.21485 1.99219,2.20703 9.07031,9.61328 15.73438,16.4375 l 12.12109,12.41406 -1.91406,1.55469 c -2.37891,1.92968 -48.01953,2.43359 -49.89453,0.55468 -1.51172,-1.51562 -1.21094,-4.64453 1.07031,-11.08984 1.13281,-3.21484 2.06641,-6.44922 2.07422,-7.1875 0.008,-0.74219 0.71094,-2.24219 1.5625,-3.33594 0.85156,-1.08984 1.99609,-3.37109 2.54297,-5.05469 1.10156,-3.3789 6.33984,-10.6914 7.65625,-10.6914 0.46093,0 1.875,0.52734 3.13281,1.18359 m 166.54297,5.96485 c 1.46875,2.71484 3.30859,6.8125 4.08984,9.11328 0.78125,2.28906 2.08203,5.48047 2.89453,7.08984 2.00782,3.95703 2.94922,12.125 1.59375,13.76563 -1.26562,1.53125 -46.42187,1.875 -49.21875,0.38281 -2.94922,-1.58594 -4.34765,0.14062 21.82422,-26.78516 l 10.51172,-10.80859 2.81641,1.14453 c 2.09375,0.85156 3.51172,2.42187 5.48828,6.09766 m -79.4375,21.16406 c 5.34765,1.24219 11.67578,6.23047 15.67187,12.36328 l 3.59766,5.52734 v 20.09766 l -3.33203,5.35156 c -15.52344,24.95313 -52.91406,14.2461 -52.91406,-15.14844 0,-19.7539 17.12109,-32.8125 36.97656,-28.1914 m -55.22656,47.47656 1.9375,1.57813 -10.91016,11.13671 c -6.00391,6.13282 -13.41797,13.83594 -16.46875,17.1211 -8.42969,9.05469 -12.68359,8.3125 -16.85156,-2.94922 -0.78125,-2.12109 -2.11328,-4.84766 -2.94141,-6.07031 -0.83594,-1.21094 -1.52344,-2.80078 -1.52344,-3.51953 0,-0.71875 -0.92578,-3.8086 -2.08203,-6.85547 -2.65234,-7.0625 -2.70703,-10.14453 -0.20312,-11.15235 4.08203,-1.64453 46.90625,-1.01953 49.04297,0.71094 m 142.57812,-0.64844 c 2.16016,1.15625 1.54297,10.36719 -0.96094,14.48047 -0.85156,1.38672 -2.12109,4.51563 -2.83203,6.9375 -0.71875,2.41797 -1.98437,5.42188 -2.82422,6.67188 -0.83593,1.24218 -2.07031,3.34765 -2.73437,4.66797 -0.66406,1.32031 -2.44141,2.98828 -3.95703,3.71484 l -2.73828,1.30469 -17.0625,-17.46875 c -18.00391,-18.44141 -18.3711,-18.94141 -14.76563,-20.26172 3.25391,-1.1836 45.66406,-1.23047 47.875,-0.0469 M 306.21875,331.375 c 36.89062,36.32031 36.46875,35.50391 22.11719,42.69141 -7.84375,3.92578 -21.88282,9.01171 -24.88282,9.01171 -2.1289,0 -2.62109,-5.14843 -2.62109,-27.8125 0,-26.44531 0.50781,-28.69921 5.38672,-23.89062 m -40.58594,23.82031 0.22656,24.23047 -1.96093,1.84375 c -1.81641,1.69922 -2.16016,1.75391 -4.80469,0.67969 -1.5625,-0.64063 -4.71484,-1.60156 -7.01172,-2.14844 -2.29297,-0.53906 -8.29297,-3.15234 -13.32812,-5.80469 -13.76172,-7.22656 -14.30469,-5.76953 12.49609,-33.13281 7.92187,-8.07812 10.43359,-10.16797 12.08984,-10.05859 l 2.07422,0.14843 0.21875,24.24219"
       id="path2" />
    <path
       style="fill:#d4a102;fill-opacity:1;fill-rule:evenodd;stroke:none"
       d="m 302.79687,108.05078 c -1.03515,1.66797 -1.47265,28.16016 -0.48046,29.14844 0.46484,0.47656 3.96484,1.20312 7.77343,1.63281 3.97266,0.44531 7.5,1.30469 8.28516,2.01953 0.75781,0.6875 4.08984,1.75781 7.40234,2.39063 3.73047,0.71093 6.72657,1.80859 7.88282,2.90234 2.23046,2.09766 6.98437,2.37891 7.72656,0.45313 0.32812,-0.86719 -0.71875,-2.32422 -3.14063,-4.37891 -1.98828,-1.69531 -5.69531,-5.31641 -8.22265,-8.03906 C 316.40234,119.5 303.42187,107.04297 302.79687,108.05078 m 119.42969,51.81641 c -0.64844,0.51953 -1.39062,1.70703 -1.63281,2.6289 -1.79297,6.60938 -4.31641,11.11328 -9.03516,16.14844 -2.85156,3.04297 -6.99609,7.45313 -9.20312,9.80078 -4.56641,4.84766 -4.86328,6.41016 -1.97266,10.41406 1.1211,1.55079 2.56641,3.95704 3.20703,5.32813 0.63282,1.375 1.75391,3.00391 2.48828,3.61328 0.73438,0.60938 1.78125,2.49219 2.3086,4.16797 0.53906,1.6875 2.8125,6.78906 5.04297,11.34766 2.24218,4.55859 4.0664,9.07812 4.0664,10.03906 0,0.96484 0.74219,3.20703 1.64844,4.98437 0.90234,1.77344 2.20703,6.45703 2.90234,10.39844 2.77735,15.80469 1.8086,15.08594 20.23047,15.08594 h 14.0625 l 3.4961,2.5664 c 1.92187,1.42188 3.49609,2.89063 3.49609,3.26954 0,0.39062 1.03125,1.92187 2.28125,3.41406 3.42578,4.07031 3.42578,14.9375 0.0156,19.0039 -1.26563,1.4961 -2.29688,3.01172 -2.29688,3.35547 0,0.34375 -1.52734,1.86328 -3.39453,3.36328 l -3.39453,2.73047 -13.5625,-0.11718 c -18.88281,-0.15625 -18.27344,-0.57813 -20.79297,14.11328 -0.67188,3.90234 -1.99219,8.77734 -2.93359,10.84765 -0.94532,2.0586 -1.72657,4.46485 -1.73438,5.33985 -0.008,0.86328 -0.91406,3.49609 -2.01172,5.83593 -4.79297,10.23829 -7.01172,15.21094 -7.50781,16.85938 -0.29688,0.96484 -1.28125,2.43359 -2.1875,3.25391 -0.90625,0.82031 -1.64453,1.95703 -1.64453,2.53515 0,0.57031 -1.3125,2.60938 -2.92188,4.53516 -4.55078,5.45703 -4.17578,6.55469 5.87891,17.09375 13.74219,14.41406 15.45312,19.95703 9.72266,31.60937 -2.73047,5.57032 -8.42188,8.7461 -15.75,8.80078 -7.5625,0.0547 -8.86329,-0.73828 -19.94922,-12.11328 -10.06641,-10.32422 -12.17188,-11.66797 -14.63282,-9.30859 -1.96484,1.88672 -9.83203,7.28125 -10.62109,7.28125 -0.42187,0 -1.89844,0.94531 -3.26953,2.10547 -1.375,1.16406 -3.74609,2.53906 -5.26953,3.05469 -1.52344,0.52343 -3.66797,1.63671 -4.76172,2.48046 -1.08984,0.84375 -2.74609,1.53907 -3.67578,1.53907 -0.92969,0 -3.26172,0.91015 -5.17969,2.04297 -1.92187,1.125 -5.69922,2.41015 -8.39844,2.86328 -2.71093,0.45312 -6.41015,1.60156 -8.22656,2.54687 -1.8125,0.94141 -4.62891,1.71485 -6.24609,1.72266 -1.6211,0 -4.32813,0.38281 -6.02344,0.85937 l -3.07422,0.85157 -0.51562,32.0625 -2.66016,3.7539 c -8.82813,12.46875 -25.67188,11.7461 -30.66016,-1.32031 -0.73828,-1.94922 -1.89453,-4.00391 -2.55859,-4.55859 -0.96875,-0.80469 -1.21094,-3.86329 -1.21094,-15.46875 0,-16.42969 0.10156,-16.1875 -7,-16.1875 -2.26172,0 -5.60937,-0.83594 -8.33594,-2.08204 -2.5039,-1.14843 -5.57031,-2.08593 -6.82031,-2.08593 -1.24219,0 -4.55078,-1.07422 -7.34375,-2.39453 -2.79297,-1.32032 -6.28906,-2.66016 -7.78125,-2.98829 -1.48437,-0.32031 -2.92578,-0.96093 -3.21484,-1.42187 -0.28125,-0.46094 -2.16406,-1.54688 -4.17578,-2.41016 -2.01563,-0.85937 -3.65235,-1.92968 -3.65235,-2.36718 0,-0.4375 -1.35937,-1.2461 -3.01172,-1.78516 -1.64843,-0.54688 -3.78125,-1.89063 -4.73046,-2.98828 -0.95313,-1.09375 -2.19532,-1.99219 -2.76563,-1.99219 -0.57422,0 -2.09766,-0.875 -3.39453,-1.94141 -4.26953,-3.52343 -4.78906,-3.39843 -10.43359,2.54297 -2.88672,3.02735 -6.89063,7.03907 -8.90625,8.92188 -2.00391,1.86328 -4.81641,4.5 -6.25,5.84375 -2.21875,2.09375 -3.48047,2.51953 -8.58594,2.9414 -3.29297,0.27344 -6.22656,0.73438 -6.52344,1.02344 -0.28906,0.28906 5.03125,6.16016 11.82422,13.03516 6.79687,6.875 16.45703,16.76172 21.46875,21.96875 19.01172,19.73047 51.34766,53.0039 62.96875,64.78906 6.64062,6.74219 13.24609,13.5625 14.65625,15.16406 1.42187,1.58985 5.26172,5.33594 8.53906,8.32813 3.27735,2.98047 6.16797,6.04687 6.41406,6.8125 0.25782,0.76562 2.33594,2.82422 4.6211,4.57422 2.29687,1.74609 4.38672,4.03515 4.64453,5.0625 l 0.46875,1.89062 H 1763.3398 v -2.05469 c 0,-2.94921 2.2383,-3.78515 10.2071,-3.78515 6.414,0 7.1328,-0.16406 8.7969,-2.08203 1.582,-1.82813 2.4882,-2.08594 7.2578,-2.08594 4.957,0 5.5078,-0.17969 6.1875,-1.97266 0.9609,-2.51953 2.3828,-3.02734 8.4687,-3.02734 4.5117,0 5.0195,-0.1875 5.7461,-2.08594 0.6524,-1.72265 1.3477,-2.08984 3.957,-2.08984 2.4805,0 3.6446,-0.53906 5.3594,-2.5 1.6406,-1.86328 2.9219,-2.50391 5.0586,-2.50391 2.2383,0 3.0586,-0.44531 3.8008,-2.08203 0.7734,-1.67969 1.5547,-2.08594 4.0976,-2.10156 3.4883,-0.0156 4.3868,-0.46094 5.7188,-2.90235 0.6406,-1.15625 1.9609,-1.74218 4.3086,-1.92187 2.5156,-0.1875 3.7383,-0.77734 4.7305,-2.29297 1.0468,-1.60156 2.0546,-2.04687 4.6679,-2.04687 2.7617,0 3.4727,-0.33985 4.1055,-2.00391 0.4141,-1.10938 1.5391,-2.25391 2.4727,-2.55859 0.9453,-0.29688 1.7187,-0.89844 1.7187,-1.32813 0,-1.69531 3.457,-4.11328 5.875,-4.11328 2.0781,0 3.7305,-1.21875 9.0781,-6.66406 5.793,-5.91797 6.8672,-6.67578 9.5547,-6.67578 2.4414,0 3.1836,-0.39454 3.8008,-2.01172 0.418,-1.10938 1.5586,-2.26172 2.5273,-2.57422 0.9688,-0.3125 2.1055,-1.46875 2.5196,-2.57813 0.4218,-1.10547 1.3515,-2.01172 2.0625,-2.01172 0.7109,0 1.6445,-0.9375 2.082,-2.08593 0.4375,-1.13672 1.3516,-2.08203 2.0391,-2.08203 0.6953,0 1.832,-1.125 2.5429,-2.50782 0.711,-1.37109 1.8516,-2.49609 2.543,-2.49609 0.6875,0 1.6719,-0.92969 2.1875,-2.06641 0.5156,-1.14062 1.5742,-2.27343 2.3477,-2.52343 0.7812,-0.24219 1.8437,-1.3711 2.3593,-2.51954 0.5235,-1.13281 1.5274,-2.0625 2.2305,-2.0625 0.7031,0 1.6953,-0.90234 2.1953,-1.99609 0.4961,-1.10156 1.8008,-2.40234 2.8945,-2.89453 1.5743,-0.72656 1.9961,-1.55469 1.9961,-3.96484 0,-2.72657 0.7266,-3.76172 6.668,-9.54688 5.0156,-4.88672 6.6641,-7.03125 6.6641,-8.6875 0,-2.87109 1.3945,-5.4375 2.9648,-5.4375 0.6797,0 1.586,-0.90625 2.0078,-2.01562 0.418,-1.10547 1.5352,-2.25391 2.4805,-2.5586 1.3047,-0.41406 1.7187,-1.25 1.7187,-3.48828 0,-2.19531 0.629,-3.53516 2.4961,-5.28516 1.7071,-1.59765 2.4961,-3.1289 2.4961,-4.86328 0,-2.42578 1.7891,-5.14062 3.3946,-5.14062 0.4218,0 0.7734,-1.35156 0.7734,-3.00391 0,-2.25781 0.6172,-3.57812 2.5,-5.33984 1.7383,-1.61719 2.5039,-3.1211 2.5039,-4.91797 0,-2.49609 2.4024,-5.91406 4.1602,-5.91406 0.4609,0 0.8359,-1.5 0.8359,-3.31641 0,-2.625 0.4414,-3.61719 2.082,-4.68359 1.8516,-1.21875 2.086,-1.96094 2.1016,-6.48828 0.016,-5.625 0.3477,-6.48438 3.1055,-7.9375 1.6757,-0.87891 1.8711,-1.6211 1.8711,-6.8125 0,-5.40625 0.1562,-5.89844 2.0937,-6.78125 1.9883,-0.90625 2.082,-1.26563 2.082,-8.40625 0,-7.20313 0.078,-7.53125 2.5,-9.78516 l 2.4961,-2.34375 v -10.10547 c 0,-10.05469 0.016,-10.11719 2.1055,-10.91016 l 2.1094,-0.80468 -0.2344,-10.64844 -0.2266,-10.64453 -711.2734,-0.41406 -711.26563,-0.42188 -2.20703,-1.73047 c -1.21093,-0.96094 -4.76953,-4.48828 -7.89843,-7.85937 -3.12891,-3.36328 -9.82032,-10.3086 -14.85157,-15.4375 -5.05078,-5.1211 -20.42578,-20.91016 -34.17968,-35.08203 -13.74219,-14.16797 -33.05079,-34.01954 -42.90235,-44.1211 -20.08203,-20.58984 -18.52734,-18.99609 -28.92187,-29.80469 -6.19922,-6.44921 -7.89844,-7.79687 -8.85938,-7.02343 m -166.34375,26.0664 c -2.94922,0.64063 -6.21875,1.73047 -7.25781,2.41797 -1.04297,0.67969 -3.61328,1.82031 -5.70313,2.53906 -2.09375,0.70704 -5.16015,2.20704 -6.8125,3.33204 -1.65625,1.12109 -3.55468,2.04296 -4.20703,2.04296 -2.48437,0 -0.21093,5.3086 4.29297,10.01563 23.375,24.44922 25.84766,26.76953 26.91797,25.30078 2.55859,-3.51172 1.11328,-47.59375 -1.53906,-46.90625 -0.17969,0.0469 -2.73828,0.60938 -5.69141,1.25781 m 46.61328,1.17188 c -1.04687,2.51953 -0.85937,44.75 0.20313,46.39062 0.98828,1.51953 17.96484,-14.53515 23.85547,-22.5664 1.54687,-2.10547 3.30468,-3.82422 3.90234,-3.82422 0.60156,0 1.34375,-0.76953 1.64063,-1.71485 0.30468,-0.94531 1.47656,-2.14062 2.59765,-2.65234 7.57813,-3.46094 -9.52734,-14.51953 -26.52734,-17.14062 -4.65235,-0.72657 -4.76172,-0.69532 -5.67188,1.50781 m -103.21875,43.76562 c -0.94531,1.60938 -2.05859,2.92969 -2.47265,2.92969 -0.42188,0 -1,1.50391 -1.29688,3.34766 -0.28906,1.83984 -1.24219,4.05859 -2.11719,4.92187 -0.86328,0.875 -2.02734,3.76563 -2.58203,6.42578 -0.55468,2.66797 -1.70703,6.16407 -2.57422,7.78125 -3.96484,7.40625 -3.51953,7.54688 24.71485,7.54688 20.12109,0 23.71094,-0.25 23.71094,-1.63281 0,-1.21485 -33.1836,-34.23047 -34.40235,-34.23047 -0.69531,0 -2.03515,1.3125 -2.98047,2.91015 m 160.3711,0.875 c -1.80469,2.0625 -9.17188,9.75 -16.36719,17.08594 -8.25,8.40625 -12.73828,13.5625 -12.14453,13.95313 1.96094,1.28125 46.82812,1.23437 47.89062,-0.0547 1.29688,-1.5586 -0.0859,-8.99219 -2.35547,-12.67578 -0.92187,-1.48047 -1.69531,-3.58985 -1.71093,-4.67969 -0.0234,-1.09375 -0.75782,-3.30469 -1.63282,-4.91016 -0.86328,-1.60156 -2.3164,-4.46484 -3.22265,-6.35937 -3.2461,-6.86328 -5.98438,-7.48047 -10.45703,-2.35938 m -85.96875,24.58594 c -1.41407,0.4375 -3.2461,1.54297 -4.08203,2.46484 -0.83594,0.92969 -1.86719,1.6875 -2.29297,1.6875 -1.24219,0 -7.3086,6.89063 -7.3086,8.30469 0,0.70703 -0.82422,2.59766 -1.83203,4.20703 -2.35547,3.75391 -2.67578,15.01563 -0.51562,18.34766 0.73437,1.14844 1.625,3.01953 1.96093,4.16797 1.88672,6.42187 11.99219,13.75781 20.27344,14.72656 26.05469,3.05078 41.01563,-29.12891 22.17578,-47.67187 -6.41797,-6.30469 -19.09765,-9.08985 -28.3789,-6.23438 m -158.61328,45.75 c -3.40625,0.61719 -4.16797,2.13281 -1.74219,3.42578 1.67969,0.90625 13.8125,12.80078 20.0664,19.67578 1.62891,1.79688 3.69141,3.84766 4.58204,4.57422 0.88671,0.71094 3.97265,3.83985 6.85937,6.94531 3.12109,3.35547 5.71094,5.48047 6.39063,5.21485 1.64062,-0.625 0.64062,-6.89844 -1.67579,-10.54297 -1.10156,-1.72656 -2.03906,-4.82422 -2.29687,-7.57813 -0.24219,-2.57031 -1.21484,-6.1289 -2.17578,-7.91406 -1.17188,-2.1875 -1.74219,-4.77734 -1.74219,-7.89062 0,-2.55469 -0.44531,-5.08985 -0.99609,-5.64453 -1.0625,-1.0625 -21.75391,-1.26563 -27.26953,-0.26563 m 74.10546,0.0156 c -2.71093,0.75 -3.02343,2.74609 -1.03125,6.57812 0.88282,1.70313 2.08985,5.16016 2.6836,7.67969 0.59375,2.53125 1.73437,5.42578 2.53515,6.45703 0.79688,1.03125 1.6875,3.15234 1.98438,4.71484 0.29687,1.5586 1.10937,3.32422 1.82031,3.91016 0.69922,0.58203 1.82422,2.12109 2.4961,3.41797 2.0039,3.88672 3.19921,3.03515 20.72265,-14.67578 16.1836,-16.36328 16.75391,-17.0586 14.85156,-17.9336 -2.20312,-1 -42.52734,-1.14062 -46.0625,-0.14843 m 144.58204,-0.1875 c -0.92188,0.20312 -2.21094,0.54687 -2.86719,0.77343 -0.79688,0.26563 2.6875,4.21485 10.21094,11.60547 6.27343,6.15625 11.40234,11.3711 11.40234,11.58203 0,0.91407 11.00391,11.33203 11.97266,11.33203 1.46484,0 4.24609,-3.13671 5.90625,-6.66406 0.75781,-1.60937 2.10937,-4.23828 2.99609,-5.83984 0.89062,-1.60547 1.625,-3.79297 1.625,-4.85156 0,-1.07032 0.89844,-3.50782 1.99609,-5.42579 2.89844,-5.0664 3.60157,-11.02734 1.42969,-12.18359 -1.59766,-0.86719 -40.95703,-1.14844 -44.67187,-0.32812 m -31.55469,31.75 c -1.02344,6.21875 -0.60156,43.99609 0.51562,45.5 1.44141,1.96093 9.83203,0.54687 17.20703,-2.89454 3.01954,-1.40625 8.02344,-3.73046 11.11329,-5.17578 6.92187,-3.21484 6.97656,-4.92968 0.34375,-11.71484 -2.36329,-2.41016 -6.16407,-6.57031 -8.46875,-9.23047 -2.28516,-2.66406 -4.65625,-5.25391 -5.25782,-5.76172 -0.60937,-0.50781 -1.73437,-1.5664 -2.5,-2.35547 -0.76953,-0.78906 -2.85547,-2.85547 -4.625,-4.58203 -1.77343,-1.73828 -4.07422,-4.0039 -5.09765,-5.03515 -2.46875,-2.47266 -2.625,-2.41016 -3.23047,1.25 m -50.91016,9.58593 c -5.89453,6.08594 -12.91015,13.3125 -15.59375,16.0586 -7.36719,7.57422 -7.17578,8.05468 5.76563,14.3164 12.20703,5.89844 19.95703,7.88282 21.66797,5.55469 1.48046,-2.01953 1.41796,-42.41797 -0.0703,-45.10156 -1.00781,-1.82031 -1.39843,-1.52344 -11.76953,9.17187"
       id="path4" />
    <path
       style="fill:#faca02;fill-opacity:1;fill-rule:evenodd;stroke:none"
       d="m 269.16797,1.476562 c 0,2.886719 -2.4336,3.808594 -10.04297,3.808594 -6.99609,0 -7.5,0.125 -8.78125,2.085938 -1.35938,2.066406 -1.46875,2.082031 -13.71484,2.082031 h -12.34375 l -1.78907,2.503906 c -1.75781,2.46875 -1.87109,2.5 -9.48437,2.5 -7.58594,0 -7.72656,0.03906 -9.54297,2.503907 -1.71875,2.328124 -2.23438,2.496093 -7.14844,2.496093 -4.73047,0 -5.4414,0.226563 -6.66015,2.09375 -1.07422,1.640625 -2.06641,2.082031 -4.64844,2.082031 -2.5625,0 -3.50391,0.414063 -4.26953,1.882813 -1.45313,2.746094 -2.32032,3.089844 -7.70313,3.105469 -4.20703,0.01563 -5.10547,0.304687 -6.51953,2.101562 -1.13672,1.449219 -2.45703,2.082032 -4.30859,2.082032 -1.92578,0 -3.28516,0.703124 -4.86719,2.503906 -1.57813,1.796875 -2.94531,2.5 -4.83984,2.5 -2.14454,0 -3.46485,0.882812 -6.89063,4.589844 -3.48828,3.777343 -4.71484,4.585937 -6.98437,4.585937 -2.01563,0 -3.125,0.554687 -4.1211,2.085937 -1.02344,1.566407 -2.09375,2.082032 -4.28515,2.082032 -2.57032,0 -3.72266,0.84375 -9.73438,7.089844 -5.73437,5.960937 -7.24219,7.09375 -9.44922,7.09375 -1.45312,0 -3.125,0.570312 -3.71484,1.261718 -0.58594,0.695313 -2.50781,2.671875 -4.25391,4.378906 -1.75781,1.710938 -3.816404,3.808594 -4.589841,4.675782 -0.773438,0.859375 -1.890625,1.984375 -2.5,2.496094 -0.597657,0.515624 -1.722657,1.632812 -2.496094,2.476562 -3.683594,4.027344 -7.90625,8.0625 -8.453125,8.0625 -0.328125,0 -1.015625,0.90625 -1.511719,2.011719 -0.5,1.101562 -1.601562,2.25 -2.429687,2.546875 -0.828125,0.296875 -2.816406,2.167968 -4.425782,4.160156 -1.605468,1.996094 -3.753906,4.09375 -4.773437,4.67188 -1.023437,0.57812 -2.0625,1.67968 -2.304687,2.45312 -0.25,0.76172 -1.371094,1.89453 -2.511719,2.51172 -1.601563,0.85156 -2.078125,1.77344 -2.078125,4.01172 0,2.55078 -0.871094,3.76953 -7.078125,9.85547 -6.140625,6.01953 -7.085938,7.32421 -7.085938,9.78125 0,2.09765 -0.539062,3.1914 -2.082031,4.19921 -1.484375,0.97657 -2.085938,2.11329 -2.085938,3.97266 0,2.07422 -0.9375,3.50391 -4.582031,6.98438 -3.628906,3.45703 -4.582031,4.91015 -4.582031,6.95312 0,1.82813 -0.738281,3.24609 -2.503906,4.81641 C 33.179688,159.25 32.5,160.58984 32.5,162.60547 c 0,2.02734 -0.554688,3.1289 -2.085938,4.1289 -1.855468,1.22266 -2.074218,1.9336 -2.074218,6.67188 0,4.91797 -0.1875,5.43359 -2.507813,7.14062 -1.910156,1.42969 -2.496093,2.51563 -2.496093,4.66016 0,1.91406 -0.664063,3.41016 -2.082032,4.73047 -1.789062,1.65234 -2.085937,2.66016 -2.085937,7.02344 0,4.6914 -0.195313,5.23828 -2.503907,6.94531 -2.445312,1.8125 -2.5,2.00781 -2.5,9.13281 0,7.375 -0.03125,7.47656 -3.722656,10.57422 -1.035156,0.875 -1.277344,3.30859 -1.277344,13.11328 0,11.92578 -0.015624,12.0586 -2.078124,13.40625 L 5.003906,251.5 v 67.16797 l 2.082032,1.36719 c 2.0625,1.35546 2.078124,1.48828 2.078124,13.30468 v 11.9336 l 2.503907,2.22265 c 2.417969,2.16407 2.496093,2.46875 2.496093,9.57813 0,7.1875 0.05469,7.375 2.5,9.1875 2.324219,1.72265 2.503907,2.23047 2.503907,7.15625 0,4.73047 0.21875,5.44531 2.085937,6.66406 1.574219,1.03125 2.082032,2.09375 2.082032,4.32422 0,2.25391 0.585937,3.44141 2.496093,5.05859 2.265625,1.90235 2.507813,2.56641 2.507813,7.11719 0,4.35547 0.265625,5.23828 2.074218,6.65625 1.46875,1.15625 2.085938,2.46094 2.085938,4.36328 0,1.96875 0.695312,3.33203 2.496094,4.94922 1.75,1.55859 2.503906,2.99609 2.503906,4.77734 0,2.00391 0.976562,3.48829 4.582031,6.92969 3.667969,3.4961 4.582031,4.89453 4.582031,7.00781 0,1.89844 0.59375,3.02735 2.085938,4.01172 1.550781,1.01563 2.082031,2.09766 2.082031,4.21485 0,2.48047 0.921875,3.73828 7.085938,9.72265 6.402343,6.20703 7.078125,7.16797 7.078125,9.98438 0,1.70703 0.3125,3.10547 0.695312,3.10547 0.375,0 3.472656,2.8164 6.875,6.25781 3.398438,3.45312 6.613282,6.68359 7.128906,7.19922 0.511719,0.50781 3.753907,3.73828 7.1875,7.17969 7.414063,7.42187 6.429688,6.42968 15.054688,15.01562 5.49219,5.46484 7.42188,6.875 9.35156,6.875 1.94922,0 3.76953,1.39063 9.29297,7.09375 5.98047,6.17578 7.22656,7.08984 9.71094,7.08984 2.11328,0 3.19922,0.52735 4.21484,2.08204 1.01953,1.55468 2.08985,2.08593 4.22656,2.08593 1.57813,0 3.35157,0.56641 3.94141,1.26172 4.78516,5.61328 7.69922,7.91406 10,7.91406 1.70703,0 3.15234,0.77344 4.66797,2.5 1.71484,1.95704 2.88672,2.50391 5.35937,2.50391 2.57032,0 3.34766,0.39063 4.11329,2.08203 0.86718,1.90625 1.40625,2.08594 6.23046,2.08594 4.80469,0 5.46875,0.22656 7.50782,2.50391 1.62109,1.82812 2.96484,2.50781 4.98047,2.50781 2.02734,0 3.1289,0.55078 4.125,2.07422 1.21875,1.86718 1.92968,2.08984 6.66015,2.08984 4.91406,0 5.42969,0.17969 7.14844,2.5 1.81641,2.46484 1.94922,2.50391 9.58203,2.50391 7.33984,0 7.8125,0.10937 9.10938,2.08593 1.35937,2.06641 1.46875,2.08204 13.60546,2.08204 12.63282,0 14.23438,0.39062 14.23438,3.5039 0,1.40625 1.42187,1.5 23.33594,1.5 26.03515,0 26.32422,-0.0781 20.26172,-5.28515 -1.69532,-1.44922 -3.85547,-3.48829 -4.80079,-4.52735 -0.94531,-1.04297 -4.48046,-4.60937 -7.85937,-7.92969 -3.37891,-3.30859 -7.32031,-7.33593 -8.75,-8.92578 -1.43359,-1.60156 -8.04688,-8.42187 -14.6875,-15.16406 -11.62109,-11.78516 -43.95703,-45.05859 -62.96875,-64.78906 -5.01172,-5.20703 -14.67188,-15.09375 -21.46875,-21.96875 -6.79297,-6.875 -12.11328,-12.7461 -11.82422,-13.03516 0.29688,-0.28906 3.23047,-0.75 6.52344,-1.02344 5.10547,-0.42187 6.36719,-0.84765 8.58594,-2.9414 1.43359,-1.34375 4.24609,-3.98047 6.25,-5.84375 2.01562,-1.88281 6.01953,-5.89453 8.90625,-8.92188 5.64453,-5.9414 6.16406,-6.0664 10.43359,-2.54297 1.29687,1.06641 2.82031,1.94141 3.39453,1.94141 0.57031,0 1.8125,0.89844 2.76563,1.99219 0.94921,1.09765 3.08203,2.4414 4.73046,2.98828 1.65235,0.53906 3.01172,1.34766 3.01172,1.78516 0,0.4375 1.63672,1.50781 3.65235,2.36718 2.01172,0.86328 3.89453,1.94922 4.17578,2.41016 0.28906,0.46094 1.73047,1.10156 3.21484,1.42187 1.49219,0.32813 4.98828,1.66797 7.78125,2.98829 2.79297,1.32031 6.10156,2.39453 7.34375,2.39453 1.25,0 4.31641,0.9375 6.82031,2.08593 2.72657,1.2461 6.07422,2.08204 8.33594,2.08204 7.10156,0 7,-0.24219 7,16.1875 0,11.60546 0.24219,14.66406 1.21094,15.46875 0.66406,0.55468 1.82031,2.60937 2.55859,4.55859 4.98828,13.06641 21.83203,13.78906 30.66016,1.32031 l 2.66016,-3.7539 0.51562,-32.0625 3.07422,-0.85157 c 1.69531,-0.47656 4.40234,-0.85937 6.02344,-0.85937 1.61718,-0.008 4.43359,-0.78125 6.24609,-1.72266 1.81641,-0.94531 5.51563,-2.09375 8.22656,-2.54687 2.69922,-0.45313 6.47657,-1.73828 8.39844,-2.86328 1.91797,-1.13282 4.25,-2.04297 5.17969,-2.04297 0.92969,0 2.58594,-0.69532 3.67578,-1.53907 1.09375,-0.84375 3.23828,-1.95703 4.76172,-2.48046 1.52344,-0.51563 3.89453,-1.89063 5.26953,-3.05469 1.37109,-1.16016 2.84766,-2.10547 3.26953,-2.10547 0.78906,0 8.65625,-5.39453 10.62109,-7.28125 2.46094,-2.35938 4.56641,-1.01563 14.63282,9.30859 11.08593,11.375 12.38672,12.16797 19.94922,12.11328 14.87109,-0.10937 23.24218,-15.46875 15.89062,-29.14843 -0.61719,-1.14844 -5.05469,-6.21485 -9.86328,-11.26172 -10.05469,-10.53906 -10.42969,-11.63672 -5.87891,-17.09375 1.60938,-1.92578 2.92188,-3.96485 2.92188,-4.53516 0,-0.57812 0.73828,-1.71484 1.64453,-2.53515 0.90625,-0.82032 1.89062,-2.28907 2.1875,-3.25391 0.49609,-1.64844 2.71484,-6.62109 7.50781,-16.85938 1.09766,-2.33984 2.00391,-4.97265 2.01172,-5.83593 0.008,-0.875 0.78906,-3.28125 1.73438,-5.33985 0.9414,-2.07031 2.26171,-6.94531 2.93359,-10.84765 2.51953,-14.69141 1.91016,-14.26953 20.79297,-14.11328 l 13.5625,0.11718 3.39453,-2.73047 c 1.86719,-1.5 3.39453,-3.01953 3.39453,-3.36328 0,-0.34375 1.03125,-1.85937 2.29688,-3.35547 3.41015,-4.0664 3.41015,-14.93359 -0.0156,-19.0039 -1.25,-1.49219 -2.28125,-3.02344 -2.28125,-3.41406 0,-0.37891 -1.57422,-1.84766 -3.49609,-3.26954 l -3.4961,-2.5664 h -14.0625 c -18.42187,0 -17.45312,0.71875 -20.23047,-15.08594 -0.69531,-3.94141 -2,-8.625 -2.90234,-10.39844 -0.90625,-1.77734 -1.64844,-4.01953 -1.64844,-4.98437 0,-0.96094 -1.82422,-5.48047 -4.0664,-10.03906 -2.23047,-4.5586 -4.50391,-9.66016 -5.04297,-11.34766 -0.52735,-1.67578 -1.57422,-3.55859 -2.3086,-4.16797 -0.73437,-0.60937 -1.85546,-2.23828 -2.48828,-3.61328 -0.64062,-1.37109 -2.08593,-3.77734 -3.20703,-5.32813 -2.89062,-4.0039 -2.59375,-5.5664 1.97266,-10.41406 2.20703,-2.34765 6.35156,-6.75781 9.20312,-9.80078 4.71875,-5.03516 7.24219,-9.53906 9.03516,-16.14844 1.20312,-4.43359 2.54687,-3.8789 10.49219,4.39453 10.39453,10.8086 8.83984,9.21485 28.92187,29.80469 9.85156,10.10156 29.16016,29.95313 42.90235,44.1211 13.7539,14.17187 29.1289,29.96093 34.17968,35.08203 5.03125,5.1289 11.72266,12.07422 14.85157,15.4375 3.1289,3.37109 6.6875,6.89843 7.89843,7.85937 l 2.20703,1.73047 711.26563,0.42188 711.2734,0.41406 0.2266,10.64453 0.2344,10.64844 -2.1094,0.80468 c -2.0898,0.79297 -2.1055,0.85547 -2.1055,10.91016 V 344.875 l -2.4961,2.34375 c -2.4218,2.25391 -2.5,2.58203 -2.5,9.78516 0,7.14062 -0.094,7.5 -2.082,8.40625 -1.9375,0.88281 -2.0937,1.375 -2.0937,6.78125 0,5.1914 -0.1954,5.93359 -1.8711,6.8125 -2.7578,1.45312 -3.0899,2.3125 -3.1055,7.9375 -0.016,4.52734 -0.25,5.26953 -2.1016,6.48828 -1.6406,1.0664 -2.082,2.05859 -2.082,4.68359 0,1.81641 -0.375,3.31641 -0.8359,3.31641 -1.7578,0 -4.1602,3.41797 -4.1602,5.91406 0,1.79687 -0.7656,3.30078 -2.5039,4.91797 -1.8828,1.76172 -2.5,3.08203 -2.5,5.33984 0,1.65235 -0.3516,3.00391 -0.7734,3.00391 -1.6055,0 -3.3946,2.71484 -3.3946,5.14062 0,1.73438 -0.789,3.26563 -2.4961,4.86328 -1.8671,1.75 -2.4961,3.08985 -2.4961,5.28516 0,2.23828 -0.414,3.07422 -1.7187,3.48828 -0.9453,0.30469 -2.0625,1.45313 -2.4805,2.5586 -0.4218,1.10937 -1.3281,2.01562 -2.0078,2.01562 -1.5703,0 -2.9648,2.56641 -2.9648,5.4375 0,1.65625 -1.6485,3.80078 -6.6641,8.6875 -5.9414,5.78516 -6.668,6.82031 -6.668,9.54688 0,2.41015 -0.4218,3.23828 -1.9961,3.96484 -1.0937,0.49219 -2.3984,1.79297 -2.8945,2.89453 -0.5,1.09375 -1.4922,1.99609 -2.1953,1.99609 -0.7031,0 -1.707,0.92969 -2.2305,2.0625 -0.5156,1.14844 -1.5781,2.27735 -2.3593,2.51954 -0.7735,0.25 -1.8321,1.38281 -2.3477,2.52343 -0.5156,1.13672 -1.5,2.06641 -2.1875,2.06641 -0.6914,0 -1.832,1.125 -2.543,2.49609 -0.7109,1.38282 -1.8476,2.50782 -2.5429,2.50782 -0.6875,0 -1.6016,0.94531 -2.0391,2.08203 -0.4375,1.14843 -1.3711,2.08593 -2.082,2.08593 -0.711,0 -1.6407,0.90625 -2.0625,2.01172 -0.4141,1.10938 -1.5508,2.26563 -2.5196,2.57813 -0.9687,0.3125 -2.1093,1.46484 -2.5273,2.57422 -0.6172,1.61718 -1.3594,2.01172 -3.8008,2.01172 -2.6875,0 -3.7617,0.75781 -9.5547,6.67578 -5.3476,5.44531 -7,6.66406 -9.0781,6.66406 -2.418,0 -5.875,2.41797 -5.875,4.11328 0,0.42969 -0.7734,1.03125 -1.7187,1.32813 -0.9336,0.30468 -2.0586,1.44921 -2.4727,2.55859 -0.6328,1.66406 -1.3438,2.00391 -4.1055,2.00391 -2.6133,0 -3.6211,0.44531 -4.6679,2.04687 -0.9922,1.51563 -2.2149,2.10547 -4.7305,2.29297 -2.3477,0.17969 -3.668,0.76562 -4.3086,1.92187 -1.332,2.44141 -2.2305,2.88672 -5.7188,2.90235 -2.5429,0.0156 -3.3242,0.42187 -4.0976,2.10156 -0.7422,1.63672 -1.5625,2.08203 -3.8008,2.08203 -2.1367,0 -3.418,0.64063 -5.0586,2.50391 -1.7148,1.96094 -2.8789,2.5 -5.3594,2.5 -2.6093,0 -3.3046,0.36719 -3.957,2.08984 -0.7266,1.89844 -1.2344,2.08594 -5.7461,2.08594 -6.0859,0 -7.5078,0.50781 -8.4687,3.02734 -0.6797,1.79297 -1.2305,1.97266 -6.1875,1.97266 -4.7696,0 -5.6758,0.25781 -7.2578,2.08594 -1.6641,1.91797 -2.3829,2.08203 -8.7969,2.08203 -8.1797,0 -10.2383,0.8125 -10.1446,3.98828 l 0.062,2.27344 0.8321,-2.29688 c 0.8359,-2.27734 0.8984,-2.29297 8.5547,-2.29297 7.5156,0 7.7656,-0.0625 9.9375,-2.5039 2.0429,-2.29688 2.6679,-2.5 7.6484,-2.5 4.9844,0 5.5078,-0.17188 6.3828,-2.08985 0.8672,-1.89843 1.4063,-2.07812 6.2266,-2.07812 4.8086,0 5.4648,-0.22656 7.5,-2.50391 1.625,-1.83594 2.9765,-2.49609 4.9883,-2.49609 2.0234,0 3.1211,-0.5625 4.1211,-2.09375 1.0078,-1.53125 2.1015,-2.08203 4.1289,-2.08203 2.582,0 3.2617,-0.42188 6.0429,-3.72266 0.5821,-0.71094 2.3399,-1.28125 3.8946,-1.28125 2.0195,0 3.2929,-0.59375 4.4609,-2.08594 1.1953,-1.52734 2.4375,-2.08203 4.582,-2.08203 2.3282,0 3.3242,-0.53125 4.7305,-2.5039 1.3203,-1.85157 2.4492,-2.5 4.332,-2.5 1.9883,0 3.5586,-1.02344 7.1016,-4.58985 3.4492,-3.48047 5.1367,-4.58594 6.9844,-4.58594 1.9687,0 3.8007,-1.39062 9.3828,-7.08984 6.0781,-6.21094 7.3047,-7.09375 9.8476,-7.09375 2.2422,0 3.1641,-0.46875 4.0118,-2.06641 0.6093,-1.14062 1.7812,-2.28125 2.6015,-2.54687 0.8203,-0.25781 1.7227,-1.10547 2.0039,-1.88672 0.2891,-0.78125 2.3438,-2.91797 4.5742,-4.75391 2.2227,-1.83203 4.2696,-3.93359 4.543,-4.66015 0.2656,-0.73438 1.3203,-1.79297 2.3399,-2.3711 1.0234,-0.57812 3.1757,-2.68359 4.7773,-4.67578 1.6094,-1.99609 3.5977,-3.86328 4.4258,-4.16015 0.8359,-0.29688 1.9101,-1.40235 2.3867,-2.45703 0.4844,-1.0625 1.7734,-2.33594 2.8672,-2.83204 1.5742,-0.71875 1.9883,-1.55468 1.9883,-3.97265 0,-2.75781 0.7187,-3.76563 7.0859,-9.92188 5.8633,-5.67187 7.0859,-7.28906 7.0859,-9.41406 0,-2.01953 0.961,-3.47266 4.5743,-6.89844 3.7773,-3.57422 4.5898,-4.83203 4.5898,-7.11718 0,-2.04297 0.5469,-3.13672 2.0859,-4.14454 1.5352,-1.00781 2.0821,-2.09765 2.0821,-4.18359 0,-2.07422 0.6562,-3.40234 2.4961,-5.04297 1.8281,-1.6289 2.5,-2.98047 2.5,-4.99219 0,-2.03125 0.5547,-3.12109 2.082,-4.1289 1.5625,-1.02344 2.0937,-2.09375 2.0937,-4.26172 0,-2.17969 0.6172,-3.44141 2.4961,-5.09766 1.8125,-1.58984 2.4961,-2.93359 2.4961,-4.91015 0,-1.97266 0.5703,-3.08203 2.086,-4.07032 1.8398,-1.21875 2.082,-1.96093 2.0976,-6.48828 0.01,-5.63281 0.3438,-6.48437 3.1094,-7.94531 1.6445,-0.86719 1.8711,-1.62891 1.8711,-6.34375 0,-3.79297 0.3828,-5.67578 1.2812,-6.43359 3.6915,-3.10547 3.7227,-3.19141 3.7227,-10.62891 0,-6.92187 0.1172,-7.42969 2.082,-8.71875 2.0313,-1.32422 2.086,-1.62891 2.086,-11.21484 v -9.84766 l 2.4961,-2.22656 2.4961,-2.23047 -1.0274,-70.46094 -1.9844,-1.53125 c -1.8867,-1.45703 -1.9804,-1.98828 -1.9804,-11.27734 v -9.75391 l -2.5078,-2.19531 c -2.418,-2.13672 -2.4961,-2.41016 -2.4961,-9.67578 0,-7.07031 -0.1172,-7.57031 -2.0743,-8.85938 -1.8671,-1.22656 -2.0937,-1.92578 -2.0937,-6.70312 0,-4.98828 -0.1641,-5.46485 -2.4961,-7.13281 -2.3281,-1.65625 -2.5,-2.14844 -2.5,-7.05079 0,-4.69531 -0.2266,-5.41406 -2.082,-6.63281 -1.5469,-1.01562 -2.086,-2.08984 -2.086,-4.20703 0,-2.65234 -0.4218,-3.33984 -3.7226,-6.11719 -0.6992,-0.59375 -1.2696,-2.30468 -1.2696,-3.80078 0,-2.07031 -0.6171,-3.18359 -2.5078,-4.58203 -1.8945,-1.40625 -2.4961,-2.51172 -2.4961,-4.59766 0,-1.85546 -0.6796,-3.38671 -2.0859,-4.70703 -1.3945,-1.30859 -2.082,-2.86328 -2.082,-4.67187 0,-2.07031 -0.6016,-3.14844 -2.5039,-4.50391 -2.0235,-1.4375 -2.5,-2.38281 -2.5,-4.92578 0,-2.48828 -0.4219,-3.35547 -2.0821,-4.24609 -1.1406,-0.61719 -2.0859,-1.42969 -2.0859,-1.80469 0,-0.37109 -1.1211,-1.69141 -2.4961,-2.91797 -1.7031,-1.51953 -2.4961,-3.0039 -2.4961,-4.68359 0,-1.96485 -1.3203,-3.73047 -6.668,-8.94141 -5.3984,-5.26172 -6.6718,-6.97265 -6.6718,-8.98437 0,-3.73828 -33.1055,-36.886722 -36.8399,-36.886722 -2.0273,0 -3.7851,-1.324219 -9.4258,-7.09375 -5.6914,-5.804688 -7.4062,-7.078126 -9.4765,-7.078126 -1.3867,0 -3.0039,-0.59375 -3.5977,-1.3125 -0.5937,-0.722656 -1.7851,-1.941406 -2.6523,-2.714843 -0.8672,-0.773438 -2.3399,-2.238281 -3.2696,-3.277344 -1.1015,-1.210937 -2.664,-1.875 -4.4101,-1.875 -2.0625,0 -3.1367,-0.597656 -4.4961,-2.503906 -1.4609,-2.050781 -2.3633,-2.496094 -5.0742,-2.496094 -2.6992,0 -3.4649,-0.375 -4.2461,-2.085937 -0.7539,-1.675782 -1.543,-2.089844 -4.0039,-2.089844 -2.3555,0 -3.5821,-0.578125 -5.2891,-2.5 -1.539,-1.722656 -3.0039,-2.503906 -4.7305,-2.503906 -1.625,0 -3.1289,-0.726563 -4.3085,-2.082032 -1.2422,-1.429687 -2.668,-2.085937 -4.5586,-2.085937 -2.0743,0 -3.1836,-0.601563 -4.5899,-2.496094 -1.707,-2.320313 -2.2305,-2.507813 -7.039,-2.507813 -4.5586,0 -5.4063,-0.257812 -6.8438,-2.082031 -1.4219,-1.8125 -2.293,-2.09375 -6.6641,-2.09375 -4.957,0 -5.3164,-0.152343 -8.3046,-3.722656 -0.8204,-0.972656 -2.8477,-1.277344 -8.5157,-1.277344 -7.3047,0 -7.4765,-0.03906 -9.2968,-2.5 l -1.8477,-2.503906 h -9.6875 c -9.3008,0 -9.7695,-0.085937 -11.5039,-2.082031 l -1.8086,-2.085938 h -38.4922 l -0.9453,-2.496094 -0.9453,-2.507812 H 983.98437 c -618.94921,0 -714.8164,0.164062 -714.8164,1.195312 m 22.72656,94.765626 c 7.39063,4.894532 8.41406,7.929692 8.75781,25.800782 0.34375,17.71094 -0.21093,16.48437 8.25782,18.36719 12.16796,2.71484 20.41015,5.0625 23.45312,6.6875 1.66016,0.89843 3.59766,1.63671 4.29297,1.64453 2.44141,0.0312 16.88672,7.86718 25.62891,13.90234 7.72656,5.33594 8.30468,5.17188 18.13281,-5.00391 15.28906,-15.83593 21.53906,-17.66015 31.63281,-9.21875 9.91797,8.29688 7.97266,18.95313 -6.20703,33.95313 -10.25391,10.84766 -10.89453,12.58203 -6.64063,18.05859 0.89063,1.14844 2.34766,3.42578 3.23047,5.0586 0.89063,1.63672 2.19922,3.47265 2.91797,4.0664 0.72656,0.60157 1.3125,1.51953 1.3125,2.05078 0,0.53125 1.11719,3.19922 2.47266,5.94922 1.36719,2.73828 2.49219,5.35157 2.50781,5.82032 0.0156,0.46093 0.95703,2.60156 2.10547,4.76171 1.14844,2.15235 2.60547,6.09375 3.25391,8.75 0.64062,2.65235 1.71875,6.32813 2.38281,8.16407 0.66797,1.83203 1.66015,5.96093 2.19922,9.16797 1.375,8.13281 1.52343,8.46875 4.0664,9.46093 1.25,0.48438 8.45313,1 16.01563,1.14063 l 13.74219,0.25 3.55468,2.84765 c 8.79297,7.07813 10.44922,17.84766 3.91016,25.56641 -5.53516,6.53516 -7.08984,7.02734 -22.19922,7.02734 -8.23437,0 -13.89062,0.35547 -15.24219,0.97266 -2.30078,1.05469 -2.37109,1.25 -4.16015,10.70313 -1.57422,8.36328 -6.14844,23.44531 -7.60157,25.08203 C 413.02344,338 412.5,339.04687 412.5,339.60937 c 0,0.5586 -0.77734,2.58985 -1.73828,4.51563 -0.95313,1.9375 -2.22656,4.84766 -2.82422,6.49609 -0.60156,1.63672 -3.23438,6.14063 -5.85547,10.00391 -7.64844,11.30078 -7.9375,10.36328 8.70313,27.68359 13.55468,14.10157 5.08984,35.73828 -12.6836,32.42188 -5.22265,-0.98438 -7.19531,-2.53906 -19.6289,-15.45313 -6.70313,-6.96484 -9.47266,-7.95312 -13.5625,-4.84765 -7.16797,5.4414 -25.71094,15.92968 -28.25391,15.97656 -0.69531,0.0156 -2.75391,0.83594 -4.58984,1.81641 -3.17579,1.71093 -14.5,4.95703 -23.3125,6.6914 -7.99219,1.56641 -7.75,1.01172 -8.0625,18.39453 -0.36719,20.44922 -4.1836,26.9961 -16.33594,28.01172 -12.14453,1.01563 -17.83203,-8.05469 -18.34766,-29.27734 -0.39844,-16.17188 -0.0156,-15.45313 -9.34375,-17.57422 -22.71094,-5.16797 -34.32422,-10.29688 -54.28906,-23.96094 -5.29688,-3.62109 -6.78125,-2.7539 -20.89063,12.21485 -8.80468,9.34765 -17.08593,11.07421 -25.13281,5.24218 -11.32422,-8.20703 -10.7539,-19.14453 1.67969,-31.98047 14.65625,-15.15625 14.54687,-14.6914 6.26562,-25.45312 -0.89062,-1.15625 -2.23828,-3.41016 -2.98046,-5.00391 -0.75,-1.58984 -1.90625,-3.83203 -2.57813,-4.97656 -0.66797,-1.14844 -1.21484,-2.875 -1.23047,-3.84766 0,-0.96875 -0.71875,-2.67968 -1.60156,-3.79296 -0.875,-1.11719 -2.23828,-4.26172 -3.03516,-6.9961 -0.78906,-2.72265 -1.96875,-5.76562 -2.61328,-6.75781 -0.64844,-0.98438 -1.57031,-4.36328 -2.05469,-7.5 -0.49218,-3.14453 -1.39062,-6.6875 -1.99609,-7.875 -0.61719,-1.19531 -1.36719,-4.08984 -1.67969,-6.42969 -0.875,-6.61328 -1.07812,-6.6914 -18.34765,-6.99219 -14.9375,-0.25781 -15.08594,-0.28125 -18.04688,-2.53906 -9.003904,-6.88281 -10.277341,-19.47265 -2.83203,-27.96484 4.10547,-4.67188 6.29688,-5.20313 21.59766,-5.20313 17.32422,0 16.45703,0.89453 21.03906,-21.8164 0.60937,-3.05078 1.89062,-7.07032 2.83203,-8.92578 0.95313,-1.86719 1.73438,-3.90235 1.73438,-4.53516 0,-1.125 2.13671,-5.85547 8.02343,-17.67969 1.59766,-3.21484 4.35547,-7.86719 6.13282,-10.34765 5.04296,-7.04688 5.02734,-7.82813 -0.35938,-13.3086 -18.21484,-18.57422 -20.78906,-23.77344 -16.35547,-32.93359 7.35938,-15.21094 20.98438,-14.97656 35.0586,0.59375 11.10546,12.28906 11.7539,12.52344 19.44921,7.08594 7.36719,-5.21485 21.25782,-12.87891 25.6836,-14.16797 1.99219,-0.56641 4.41015,-1.54297 5.39453,-2.16797 1.92578,-1.21875 17.62109,-5.54297 23.51562,-6.48438 6.49219,-1.03906 6.78907,-1.78906 6.78907,-17.34375 0,-10.66796 0.25781,-13.94531 1.21875,-15.21875 0.67578,-0.89062 1.23047,-2.23046 1.24609,-2.96484 0.16406,-8.03125 15.70313,-13.433594 23.59375,-8.195312 m 38.12891,37.937502 c 2.52734,2.72265 6.23437,6.34375 8.22265,8.03906 2.42188,2.05469 3.46875,3.51172 3.14063,4.37891 -0.74219,1.92578 -5.4961,1.64453 -7.72656,-0.45313 -1.15625,-1.09375 -4.15235,-2.19141 -7.88282,-2.90234 -3.3125,-0.63282 -6.64453,-1.70313 -7.40234,-2.39063 -0.78516,-0.71484 -4.3125,-1.57422 -8.28516,-2.01953 -3.80859,-0.42969 -7.30859,-1.15625 -7.77343,-1.63281 -0.99219,-0.98828 -0.55469,-27.48047 0.48046,-29.14844 0.625,-1.00781 13.60547,11.44922 27.22657,26.12891 m -69.56641,48.67968 c -0.26562,0.42969 -3.17578,1.38672 -6.47656,2.13672 -5.12891,1.16407 -20.85547,8.5 -24.57813,11.46485 -1.67578,1.32812 0.82032,5.98047 6.30078,11.73828 25.61329,26.93359 27.35547,28.40234 29.26563,24.82031 1.85937,-3.48047 1.10156,-46.23437 -0.86719,-48.73437 -1.80859,-2.30079 -2.85547,-2.71485 -3.64453,-1.42579 m 41.96875,0.56641 c -1.24219,1.5 -2.25781,43.53516 -1.1875,49.32813 0.58594,3.16796 2.33203,3.52734 4.92578,1.00781 23.48438,-22.8711 32.27735,-32.57813 31.9961,-35.3086 -0.30079,-3.01562 -14.88282,-10.82031 -25.60547,-13.70703 -3.46485,-0.9375 -6.89844,-1.92578 -7.63282,-2.21484 -0.75781,-0.29688 -1.82031,0.0859 -2.49609,0.89453 m -39.42187,2.625 c 1.5664,2.05859 1.66015,43.41016 0.10937,45.53125 -1.07031,1.46875 -3.54297,-0.85156 -26.91797,-25.30078 -4.5039,-4.70703 -6.77734,-10.01563 -4.29297,-10.01563 0.65235,0 2.55078,-0.92187 4.20703,-2.04296 1.65235,-1.125 4.71875,-2.625 6.8125,-3.33204 2.08985,-0.71875 4.66016,-1.85937 5.70313,-2.53906 1.03906,-0.6875 4.30859,-1.77734 7.25781,-2.41797 2.95313,-0.64843 5.51172,-1.21093 5.69141,-1.25781 0.17969,-0.0469 0.82812,0.57031 1.42969,1.375 m 52.82812,1.08594 c 13.52734,3.76172 24.65625,12.96094 18.86328,15.60156 -1.12109,0.51172 -2.29297,1.70703 -2.59765,2.65234 -0.29688,0.94532 -1.03907,1.71485 -1.64063,1.71485 -0.59766,0 -2.35547,1.71875 -3.90234,3.82422 -5.89063,8.03125 -22.86719,24.08593 -23.85547,22.5664 -1.0625,-1.64062 -1.25,-43.87109 -0.20313,-46.39062 0.98828,-2.39844 4.61719,-2.39063 13.33594,0.0312 m -117.83594,42.97265 c -1.59765,2.08985 -3.35547,5.1875 -3.91015,6.875 -0.54688,1.6836 -1.69141,3.96485 -2.54297,5.05469 -0.85156,1.09375 -1.55469,2.59375 -1.5625,3.33594 -0.008,0.73828 -0.94141,3.97266 -2.07422,7.1875 -2.28125,6.44531 -2.58203,9.57422 -1.07031,11.08984 1.875,1.87891 47.51562,1.375 49.89453,-0.55468 l 1.91406,-1.55469 -12.12109,-12.41406 c -6.66407,-6.82422 -13.74219,-14.23047 -15.73438,-16.4375 -3.38672,-3.76954 -7.10937,-6.39844 -9.04687,-6.39844 -0.46094,0 -2.14453,1.71484 -3.7461,3.8164 m 154.60547,6.89844 c -26.17187,26.92578 -24.77344,25.19922 -21.82422,26.78516 2.79688,1.49219 47.95313,1.14844 49.21875,-0.38281 1.35547,-1.64063 0.41407,-9.8086 -1.59375,-13.76563 -0.8125,-1.60937 -2.11328,-4.80078 -2.89453,-7.08984 -2.68359,-7.89063 -6.50781,-13.96875 -9.57812,-15.21094 l -2.81641,-1.14453 -10.51172,10.80859 m -132.50781,7.76563 c 17.21484,17.46484 17.41797,17.70703 15.25781,18.54297 -1.75,0.66406 -42.73047,0.64843 -46.07812,-0.0156 -3.11719,-0.625 -3.40625,-2.60547 -1.03907,-7.02344 0.86719,-1.61718 2.01954,-5.11328 2.57422,-7.78125 0.55469,-2.66015 1.71875,-5.55078 2.58203,-6.42578 0.875,-0.86328 1.82813,-3.08203 2.11719,-4.92187 0.29688,-1.84375 0.875,-3.34766 1.29688,-3.34766 0.41406,0 1.52734,-1.32031 2.47265,-2.92969 2.60547,-4.41797 3.03516,-4.13672 20.81641,13.90235 m 146.46094,-15.46875 c 1.05468,0.75 2.65234,2.90234 3.55078,4.80078 0.90625,1.89453 2.35937,4.75781 3.22265,6.35937 0.875,1.60547 1.60938,3.81641 1.63282,4.91016 0.0156,1.08984 0.78906,3.19922 1.71093,4.67969 2.26954,3.68359 3.65235,11.11718 2.35547,12.67578 -1.0625,1.28906 -45.92968,1.33594 -47.89062,0.0547 -0.59375,-0.39063 3.89453,-5.54688 12.14453,-13.95313 7.19531,-7.33594 14.5625,-15.02344 16.36719,-17.08594 3.65234,-4.17578 4.16797,-4.36328 6.90625,-2.4414 M 274.875,254.69922 c -15.28125,3.61328 -24.5625,24.89844 -17.4375,39.97656 10.19922,21.57813 37.96875,23.38281 50.48047,3.26953 l 3.33203,-5.35156 v -20.09766 l -3.59766,-5.52734 c -7.25,-11.12891 -19.0039,-15.53125 -32.77734,-12.26953 m 21.85937,3.71484 c 10.34766,7.09375 12.79297,11.36328 13.1211,22.92188 0.29687,10.42968 -0.0234,11.72265 -4.30078,17.50781 -12.01953,16.26562 -40.78907,14.17969 -45.94532,-3.33203 -0.33593,-1.14844 -1.22656,-3.01953 -1.96093,-4.16797 -2.16016,-3.33203 -1.83985,-14.59375 0.51562,-18.34766 1.00781,-1.60937 1.83203,-3.5 1.83203,-4.20703 0,-1.41406 6.06641,-8.30469 7.3086,-8.30469 0.42578,0 1.45703,-0.75781 2.29297,-1.6875 3.8789,-4.28515 21.08203,-4.52734 27.13671,-0.38281 m -109.02343,42.95703 c -2.50391,1.00782 -2.44922,4.08985 0.20312,11.15235 1.15625,3.04687 2.08203,6.13672 2.08203,6.85547 0,0.71875 0.6875,2.30859 1.52344,3.51953 0.82813,1.22265 2.16016,3.94922 2.94141,6.07031 4.16797,11.26172 8.42187,12.00391 16.85156,2.94922 3.05078,-3.28516 10.46484,-10.98828 16.46875,-17.1211 l 10.91016,-11.13671 -1.9375,-1.57813 c -2.13672,-1.73047 -44.96094,-2.35547 -49.04297,-0.71094 m 143.74609,0.10938 c -3.60547,1.32031 -3.23828,1.82031 14.76563,20.26172 l 17.0625,17.46875 2.73828,-1.30469 c 1.51562,-0.72656 3.29297,-2.39453 3.95703,-3.71484 0.66406,-1.32032 1.89844,-3.42579 2.73437,-4.66797 0.83985,-1.25 2.10547,-4.25391 2.82422,-6.67188 0.71094,-2.42187 1.98047,-5.55078 2.83203,-6.9375 2.50391,-4.11328 3.1211,-13.32422 0.96094,-14.48047 -2.21094,-1.18359 -44.62109,-1.13672 -47.875,0.0469 m -189.12109,0.86719 c 0.55078,0.55468 0.99609,3.08984 0.99609,5.64453 0,3.11328 0.57031,5.70312 1.74219,7.89062 0.96094,1.78516 1.93359,5.34375 2.17578,7.91406 0.25781,2.75391 1.19531,5.85157 2.29687,7.57813 2.31641,3.64453 3.31641,9.91797 1.67579,10.54297 -0.67969,0.26562 -3.26954,-1.85938 -6.39063,-5.21485 -2.88672,-3.10546 -5.97266,-6.23437 -6.85937,-6.94531 -0.89063,-0.72656 -2.95313,-2.77734 -4.58204,-4.57422 -6.2539,-6.875 -18.38671,-18.76953 -20.0664,-19.67578 -2.42578,-1.29297 -1.66406,-2.80859 1.74219,-3.42578 5.51562,-1 26.20703,-0.79687 27.26953,0.26563 m 92.89843,-0.10157 c 1.90235,0.875 1.33204,1.57032 -14.85156,17.9336 -17.52344,17.71093 -18.71875,18.5625 -20.72265,14.67578 -0.67188,-1.29688 -1.79688,-2.83594 -2.4961,-3.41797 -0.71094,-0.58594 -1.52344,-2.35156 -1.82031,-3.91016 -0.29688,-1.5625 -1.1875,-3.68359 -1.98438,-4.71484 -0.80078,-1.03125 -1.9414,-3.92578 -2.53515,-6.45703 -0.59375,-2.51953 -1.80078,-5.97656 -2.6836,-7.67969 -1.99218,-3.83203 -1.67968,-5.82812 1.03125,-6.57812 3.53516,-0.99219 43.85938,-0.85157 46.0625,0.14843 m 143.19141,-0.008 c 2.17188,1.15625 1.46875,7.11719 -1.42969,12.18359 -1.09765,1.91797 -1.99609,4.35547 -1.99609,5.42579 0,1.05859 -0.73438,3.24609 -1.625,4.85156 -0.88672,1.60156 -2.23828,4.23047 -2.99609,5.83984 -1.66016,3.52735 -4.44141,6.66406 -5.90625,6.66406 -0.96875,0 -11.97266,-10.41796 -11.97266,-11.33203 0,-0.21093 -5.12891,-5.42578 -11.40234,-11.58203 -7.52344,-7.39062 -11.00782,-11.33984 -10.21094,-11.60547 3.00781,-1.01562 5.78515,-1.14843 25.21094,-1.24218 13.1875,-0.0547 21.27343,0.22656 22.32812,0.79687 m -76.58594,28.46484 c -2.60156,2.59766 -1.05468,52.375 1.61328,52.375 3,0 17.03907,-5.08593 24.88282,-9.01171 12.74609,-6.37891 12.84765,-6.91797 3.16015,-16.92969 -7.10937,-7.34375 -22.25781,-22.78906 -25.27734,-25.76172 -1.94531,-1.92188 -2.97656,-2.07813 -4.37891,-0.67188 M 251.25,340.86328 c -26.80078,27.36328 -26.25781,25.90625 -12.49609,33.13281 5.03515,2.65235 11.03515,5.26563 13.32812,5.80469 2.29688,0.54688 5.44922,1.50781 7.01172,2.14844 2.64453,1.07422 2.98828,1.01953 4.80469,-0.67969 l 1.96093,-1.84375 -0.22656,-24.23047 -0.21875,-24.24219 -2.07422,-0.14843 c -1.65625,-0.10938 -4.16797,1.98047 -12.08984,10.05859 m 54.17969,-8.45312 c 1.02343,1.03125 3.32422,3.29687 5.09765,5.03515 1.76953,1.72656 3.85547,3.79297 4.625,4.58203 0.76563,0.78907 1.89063,1.84766 2.5,2.35547 0.60157,0.50781 2.97266,3.09766 5.25782,5.76172 2.30468,2.66016 6.10546,6.82031 8.46875,9.23047 6.63281,6.78516 6.57812,8.5 -0.34375,11.71484 -3.08985,1.44532 -8.09375,3.76953 -11.11329,5.17578 -7.375,3.44141 -15.76562,4.85547 -17.20703,2.89454 -1.75781,-2.36329 -1.35156,-48.6211 0.42578,-48.6211 0.22657,0 1.25782,0.84375 2.28907,1.8711 m -41.29688,24.44531 c 0.0234,15.44531 -0.24219,21.26953 -1.0039,22.32031 -1.71094,2.32813 -9.46094,0.34375 -21.66797,-5.55469 -12.94141,-6.26172 -13.13282,-6.74218 -5.76563,-14.3164 2.6836,-2.7461 9.69922,-9.97266 15.59375,-16.0586 13.57813,-13.99609 12.80469,-14.80859 12.84375,13.60938"
       id="path6" />
  </g>
  <rect
     style="fill:#d4a102;fill-opacity:1;stroke-width:1.0178"
     id="rect1417"
     width="67.882248"
     height="265.16504"
     x="1933.23"
     y="301.9346" />
  <rect
     style="fill:#d4a102;fill-opacity:1"
     id="rect1421"
     width="247.48737"
     height="178.89801"
     x="1704.1273"
     y="386.78741" />
  <rect
     style="fill:#faca02;fill-opacity:1"
     id="rect1544"
     width="203.64676"
     height="299.10617"
     x="1796.7583"
     y="1.4142135" />
  <rect
     style="fill:#faca02;fill-opacity:1"
     id="rect1546"
     width="16.263456"
     height="17.67767"
     x="1685.0354"
     y="3.5355339" />
  <rect
     style="fill:#faca02;fill-opacity:1"
     id="rect1548"
     width="110.30865"
     height="32.526913"
     x="1690.6923"
     y="0" />
  <text
     xml:space="preserve"
     style="font-weight:bold;font-size:400px;font-family:Calibri;-inkscape-font-specification:'Calibri Bold';fill:#fafaf8;fill-opacity:1"
     x="478.26605"
     y="401.39151"
     id="text173"><tspan
       sodipodi:role="line"
       id="tspan171"
       x="478.26605"
       y="401.39151">Dhamma</tspan></text>
</svg>
