<?xml version="1.0" encoding="UTF-8" standalone="no"?>
<!-- Generator: Adobe Illustrator 19.0.0, SVG Export Plug-In . SVG Version: 6.00 Build 0)  -->

<svg
   version="1.1"
   id="Calque_1"
   x="0px"
   y="0px"
   viewBox="0 0 1415 454"
   xml:space="preserve"
   width="1415"
   height="454"
   sodipodi:docname="articles.svg"
   inkscape:export-filename="abhidhamma.svg"
   inkscape:export-xdpi="96"
   inkscape:export-ydpi="96"
   xmlns:inkscape="http://www.inkscape.org/namespaces/inkscape"
   xmlns:sodipodi="http://sodipodi.sourceforge.net/DTD/sodipodi-0.dtd"
   xmlns="http://www.w3.org/2000/svg"
   xmlns:svg="http://www.w3.org/2000/svg"><sodipodi:namedview
   id="namedview17"
   pagecolor="#505050"
   bordercolor="#eeeeee"
   borderopacity="1"
   inkscape:showpageshadow="0"
   inkscape:pageopacity="0"
   inkscape:pagecheckerboard="0"
   inkscape:deskcolor="#505050"
   showgrid="false"
   inkscape:zoom="1.064724"
   inkscape:cx="486.04145"
   inkscape:cy="222.12329"
   inkscape:window-width="1920"
   inkscape:window-height="991"
   inkscape:window-x="-9"
   inkscape:window-y="-9"
   inkscape:window-maximized="1"
   inkscape:current-layer="Calque_1"
   showguides="true" /><defs
   id="defs41"><clipPath
     clipPathUnits="userSpaceOnUse"
     id="clipPath3715"><circle
       style="display:inline;fill:#feecb4;stroke-width:1.10781"
       id="circle3717"
       cx="296.90961"
       cy="301.35214"
       r="220.64601" /></clipPath></defs>
<style
   type="text/css"
   id="style2">
	.st0{opacity:0.2;}
</style>


<g
   id="XMLID_843_"
   clip-path="url(#clipPath3715)"
   transform="matrix(0.6061539,0,0,0.6061539,536.74358,-43.377749)">
	<rect
   id="XMLID_1309_"
   x="0"
   y="0"
   fill="#414042"
   width="595.29999"
   height="595.29999" />
	<g
   id="XMLID_458_">
		<path
   id="XMLID_459_"
   fill="#ffffff"
   d="m 261.2,287.6 c 5.3,4.3 11.8,7.2 19,7.9 l 1.7,-22.8 c -2.1,-0.3 -4.1,-1.1 -5.7,-2.4 z" />
		<path
   id="XMLID_521_"
   fill="#ffffff"
   d="m 306.1,233 c -5.3,-4.3 -11.8,-7.2 -19,-7.9 l -1.7,22.8 c 2.1,0.3 4.1,1.1 5.7,2.4 z" />
		<path
   id="XMLID_522_"
   fill="#ffffff"
   d="m 271.2,262.1 -22.8,1.7 c 0.7,7.2 3.5,13.7 7.9,19 l 17.3,-14.9 c -1.2,-1.8 -2.1,-3.7 -2.4,-5.8 z" />
		<path
   id="XMLID_523_"
   fill="#ffffff"
   d="m 273.6,252.8 -17.3,-14.9 c -4.4,5.3 -7.2,11.8 -7.9,19 l 22.8,1.7 c 0.3,-2.2 1.2,-4.2 2.4,-5.8 z" />
		<path
   id="XMLID_524_"
   fill="#ffffff"
   d="m 281.8,247.9 -1.7,-22.8 c -7.2,0.7 -13.7,3.5 -19,7.9 l 14.9,17.3 c 1.8,-1.3 3.7,-2.1 5.8,-2.4 z" />
		<path
   id="XMLID_527_"
   fill="#ffffff"
   d="M 346,177.5 H 221.2 V 343 H 346 Z m -12.4,87.3 -8.6,-0.6 c -0.8,8.5 -4.2,16.3 -9.4,22.6 l 6.6,5.7 -0.6,5.8 -5.8,0.6 -5.7,-6.6 c -6.3,5.2 -14,8.6 -22.6,9.4 l 0.6,8.6 -4.5,3.7 -4.5,-3.7 0.6,-8.6 c -8.5,-0.8 -16.3,-4.2 -22.6,-9.4 l -5.7,6.6 -5.8,-0.6 -0.6,-5.8 6.6,-5.7 c -5.2,-6.2 -8.6,-14 -9.4,-22.6 l -8.7,0.6 -3.7,-4.5 3.7,-4.5 8.7,0.6 c 0.8,-8.5 4.2,-16.3 9.4,-22.6 l -6.6,-5.7 0.6,-5.8 5.8,-0.6 5.7,6.6 c 6.2,-5.2 14,-8.6 22.6,-9.4 l -0.6,-8.6 4.5,-3.7 4.5,3.7 -0.6,8.6 c 8.5,0.8 16.3,4.2 22.6,9.4 l 5.7,-6.6 5.8,0.6 0.6,5.8 -6.6,5.7 c 5.2,6.2 8.6,14 9.4,22.6 l 8.6,-0.6 3.7,4.5 z" />
		<path
   id="XMLID_528_"
   fill="#ffffff"
   d="m 293.7,252.8 c 1.2,1.6 2.1,3.6 2.4,5.7 l 22.8,-1.7 c -0.7,-7.2 -3.5,-13.7 -7.9,-19 z" />
		<path
   id="XMLID_532_"
   fill="#ffffff"
   d="m 411.5,203.4 c -0.7,-8.5 -13.5,-7.7 -13.5,0.8 v 197.2 c 0,5.8 -4.7,10.5 -10.5,10.5 H 255.2 v -18.1 h -17.4 v 18.1 h -24.5 c -7.5,0 -13.5,-6.1 -13.5,-13.5 v -9.8 c 0,-8.2 6.6,-14.8 14.8,-14.8 h 150.8 c 5.8,0 10.5,-4.7 10.5,-10.5 V 162.1 c 0,-6.7 -5.5,-12.2 -12.2,-12.2 h -140 c -22,0 -39.9,17.9 -39.9,39.9 v 204 c 0,18.6 15,33.6 33.6,33.6 h 20.4 v 58 l 8.7,-12.3 8.7,12.3 v -58 h 142.3 c 7.8,0 14,-6.3 14,-14 V 204.6 c 0,-0.4 0,-0.8 0,-1.2 z M 215.6,174.7 c 0,-1.6 1.3,-2.8 2.8,-2.8 h 130.4 c 1.6,0 2.8,1.3 2.8,2.8 v 171.1 c 0,1.6 -1.3,2.8 -2.8,2.8 H 218.4 c -1.6,0 -2.8,-1.3 -2.8,-2.8 z" />
		<path
   id="XMLID_533_"
   fill="#ffffff"
   d="m 293.7,267.8 17.3,14.9 c 4.3,-5.3 7.2,-11.8 7.9,-19 L 296.1,262 c -0.4,2.2 -1.2,4.1 -2.4,5.8 z" />
		<path
   id="XMLID_534_"
   fill="#ffffff"
   d="m 285.4,272.7 1.7,22.8 c 7.2,-0.7 13.7,-3.5 19,-7.9 l -14.9,-17.3 c -1.7,1.2 -3.7,2.1 -5.8,2.4 z" />
		<path
   id="XMLID_537_"
   fill="#ffffff"
   d="m 290.1,260.3 c 0,-3.5 -2.9,-6.4 -6.4,-6.4 -3.5,0 -6.4,2.9 -6.4,6.4 0,3.5 2.9,6.4 6.4,6.4 3.5,0 6.4,-2.9 6.4,-6.4 z m -6.5,2.6 c -1.4,0 -2.6,-1.2 -2.6,-2.6 0,-1.4 1.2,-2.6 2.6,-2.6 1.5,0 2.6,1.2 2.6,2.6 0,1.4 -1.1,2.6 -2.6,2.6 z" />
	</g>
</g><path
   style="fill:#feecb4;fill-opacity:1;stroke-width:0.306204"
   d="m 707.34023,145.64784 -1.1872,-1.03048 0.13714,-2.61317 c 0.0754,-1.43724 0.10509,-2.61316 0.0659,-2.61316 -0.0392,0 -1.106,-0.19797 -2.37068,-0.43995 -3.61974,-0.69256 -7.42653,-2.38727 -10.4868,-4.66848 l -0.94349,-0.70331 -1.75557,1.98725 c -1.47248,1.66683 -1.91284,1.9866 -2.73095,1.9831 -1.98103,-0.008 -2.26468,-0.22875 -2.49091,-1.93412 -0.18793,-1.41673 -0.13542,-1.64275 0.5097,-2.19366 0.39556,-0.33782 1.31579,-1.12286 2.04494,-1.74453 l 1.32572,-1.13032 -1.51778,-2.26927 c -1.95538,-2.92355 -3.3745,-6.35585 -3.84154,-9.29125 l -0.37087,-2.33091 -2.67558,0.15255 -2.67558,0.15256 -1.04941,-1.28066 -1.04939,-1.28065 1.01765,-1.2068 1.01767,-1.20678 h 2.66935 2.66933 l 0.53783,-2.63694 c 0.60288,-2.95594 2.45436,-7.17776 4.17695,-9.524387 l 1.13814,-1.550465 -0.75629,-0.646083 c -0.41596,-0.355356 -1.34973,-1.152062 -2.07503,-1.770436 l -1.31873,-1.124335 0.25849,-1.6315 0.25849,-1.631495 1.68244,-0.0836 1.68245,-0.0836 1.51188,1.84426 c 0.83153,1.014354 1.6314,1.844274 1.77747,1.844274 0.14608,0 1.11923,-0.580143 2.16256,-1.289204 2.60639,-1.771314 5.91408,-3.154088 9.07149,-3.792316 l 2.65442,-0.536556 -0.12666,-2.649253 -0.12666,-2.649253 1.25263,-0.992106 1.25264,-0.992105 1.26979,1.015282 1.26979,1.015283 -0.18287,2.611965 -0.18288,2.611964 2.5466,0.524192 c 3.23936,0.666788 6.41148,1.974882 9.06189,3.736863 1.14603,0.761881 2.20296,1.384255 2.34872,1.383048 0.14576,-9.08e-4 0.94537,-0.827951 1.7769,-1.837222 1.44687,-1.756111 1.57196,-1.834821 2.90894,-1.830334 0.76838,0.0025 1.54824,0.105924 1.73302,0.229653 0.37585,0.251681 0.82902,3.433319 0.49167,3.452025 -0.11838,0.0064 -1.03708,0.750763 -2.04157,1.653766 l -1.82633,1.641813 1.25101,1.791032 c 0.68806,0.98507 1.61157,2.50652 2.05224,3.38101 0.95547,1.89608 2.33974,6.52444 2.33974,7.82298 v 0.92385 l 2.69024,-0.21044 2.69024,-0.21045 0.98421,1.22471 c 0.54132,0.67359 0.98421,1.31096 0.98421,1.41637 0,0.10541 -0.44568,0.7225 -0.99041,1.37134 l -0.9904,1.17968 -2.61744,-0.16958 -2.61744,-0.16957 -0.3818,2.26098 c -0.50027,2.96253 -2.00225,6.62446 -3.86842,9.4316 l -1.50219,2.25961 0.64568,0.52284 c 0.35511,0.28755 1.25781,1.06166 2.00601,1.72023 1.3373,1.17714 1.35778,1.22406 1.20935,2.76884 -0.13993,1.45616 -0.21853,1.58491 -1.07192,1.75559 -2.09954,0.4199 -2.45425,0.26643 -4.17249,-1.80532 -0.96656,-1.1654 -1.78672,-1.89598 -1.99033,-1.77292 -0.19047,0.11513 -0.97564,0.65912 -1.7448,1.20888 -2.79796,1.99979 -6.75694,3.55275 -10.77382,4.22616 l -1.14898,0.19262 0.19768,2.57159 0.19767,2.57159 -1.00763,0.85919 c -1.54872,1.32058 -1.60438,1.32498 -2.87003,0.22642 z m -0.23063,-14.90706 c 0.20057,-2.90511 0.44842,-6.14322 0.55079,-7.1958 0.16684,-1.71553 0.12831,-1.91377 -0.3719,-1.91377 -0.30691,0 -1.16298,-0.29285 -1.90237,-0.65078 -0.75266,-0.36435 -1.45298,-0.53282 -1.59117,-0.38276 -0.13576,0.14742 -2.20763,2.5355 -4.60416,5.30684 l -4.35733,5.03879 0.87602,0.71811 c 2.06528,1.69301 7.5314,3.87665 10.85499,4.33642 0.0993,0.0137 0.34457,-2.35195 0.54513,-5.25705 z m 7.23572,4.46203 c 2.13844,-0.52167 5.67454,-2.21696 7.15532,-3.43043 l 1.03126,-0.8451 -4.20157,-4.87768 c -2.31088,-2.68273 -4.38238,-5.06785 -4.60335,-5.30026 -0.34049,-0.35811 -0.60727,-0.32307 -1.74906,0.22966 -0.74103,0.35872 -1.59841,0.65221 -1.90531,0.65221 -0.49964,0 -0.53913,0.20025 -0.37742,1.91377 0.0993,1.05258 0.34751,4.28275 0.55151,7.17815 l 0.37088,5.26439 0.94526,-0.16827 c 0.5199,-0.0925 1.772,-0.36993 2.78248,-0.61644 z m -16.7724,-11.6245 5.22106,-4.48318 -0.73117,-1.45571 c -0.40212,-0.80064 -0.73115,-1.60794 -0.73115,-1.79399 0,-0.19446 -0.55979,-0.33829 -1.31672,-0.33829 -1.4432,0 -8.58607,0.50479 -11.19702,0.79131 l -1.6435,0.18034 0.20188,1.52188 c 0.44708,3.37019 3.61706,10.06082 4.76676,10.06082 0.11485,0 2.55829,-2.01743 5.42986,-4.48318 z m 28.81154,3.18182 c 1.87123,-2.72959 3.73034,-7.53068 3.73034,-9.63343 0,-0.87265 -0.12884,-0.89826 -6.58337,-1.30827 -2.86301,-0.18188 -5.68774,-0.39833 -6.27718,-0.481 -1.15555,-0.16207 -0.98945,-0.39531 -2.53461,3.5592 -0.0804,0.20587 10.23811,9.16486 10.55567,9.16486 0.11936,0 0.61847,-0.58561 1.10915,-1.30136 z m -15.48912,-9.00462 c 2.56577,-1.29232 2.22185,-5.86418 -0.52754,-7.01296 -1.39926,-0.58464 -2.2478,-0.55592 -3.5056,0.11864 -2.27251,1.21876 -2.81247,4.37971 -1.06054,6.20834 1.4087,1.47036 3.08751,1.69644 5.09368,0.68598 z m -9.56368,-4.80549 c 0,-0.22754 0.33009,-1.03453 0.73355,-1.79332 l 0.73353,-1.37961 -5.13747,-4.40731 c -2.82562,-2.42402 -5.32593,-4.40731 -5.55625,-4.40731 -1.66212,0 -6.13398,11.40054 -4.51542,11.51159 0.2322,0.016 2.48908,0.20403 5.01525,0.41797 6.54181,0.55405 8.72681,0.56856 8.72681,0.058 z m 22.64374,-0.058 c 3.27561,-0.25703 6.02695,-0.53864 6.11411,-0.62579 0.0871,-0.0871 -0.0656,-1.24227 -0.33955,-2.5669 -0.54994,-2.65959 -1.79933,-5.50979 -3.39907,-7.75417 l -1.04557,-1.46691 -5.37249,4.6475 -5.37251,4.64751 0.73455,1.38151 c 0.40401,0.75983 0.73457,1.56767 0.73457,1.79521 0,0.52601 0.55565,0.52196 7.94596,-0.058 z m -18.59473,-5.01926 c 0.72024,-0.32541 1.56609,-0.67147 1.87965,-0.76904 0.47831,-0.14883 0.54154,-0.38634 0.39269,-1.47522 -0.0976,-0.71381 -0.34036,-3.77809 -0.53953,-6.809505 -0.19918,-3.031417 -0.44583,-5.609148 -0.5481,-5.728304 -0.31479,-0.366723 -4.63721,0.67734 -6.75207,1.630936 -2.63965,1.190208 -4.95348,2.772765 -4.76804,3.261101 0.13702,0.360883 8.7775,10.481682 8.94856,10.481682 0.0425,0 0.66658,-0.26625 1.38684,-0.59165 z m 12.60141,-4.75097 c 5.11894,-5.913142 4.9902,-5.309289 1.5687,-7.3581 -1.86839,-1.118814 -5.41865,-2.375039 -7.67866,-2.717036 l -1.24836,-0.188913 -0.51094,6.91617 c -0.281,3.803889 -0.43451,7.039809 -0.34112,7.190939 0.0934,0.1511 0.40281,0.28052 0.68759,0.28758 0.28479,0.007 1.00005,0.27653 1.5895,0.59881 0.58944,0.32228 1.15474,0.55765 1.25625,0.52302 0.10148,-0.0346 2.20616,-2.39824 4.67704,-5.25247 z"
   id="path3880" /><path
   style="fill:#feecb4;fill-opacity:1;stroke-width:0.306204"
   d="m 668.32979,167.39131 -0.68055,-0.47668 v -52.47469 c 0,-47.295997 0.0475,-52.522182 0.48119,-52.955873 0.43252,-0.432528 4.52975,-0.481177 40.52453,-0.481177 38.40447,0 40.0641,0.02292 40.55012,0.559967 0.46739,0.516464 0.50676,4.630634 0.50676,52.955873 v 52.3959 l -0.68054,0.47668 c -0.60743,0.42546 -4.94169,0.47666 -40.35075,0.47666 -35.40906,0 -39.74332,-0.0512 -40.35076,-0.47666 z M 746.6498,114.43543 V 64.064926 h -37.96925 -37.96927 v 50.370504 50.37051 h 37.96927 37.96925 z"
   id="path3882" /><path
   style="fill:#feecb4;fill-opacity:1;stroke-width:0.0765509"
   d="m 708.05071,115.80287 c -0.52662,-0.25963 -0.9361,-0.87454 -0.9361,-1.40571 0,-0.59816 0.52959,-1.27916 1.13602,-1.46085 0.93142,-0.27907 1.92587,0.47978 1.92098,1.46587 -0.002,0.39322 -0.20451,0.87848 -0.46771,1.12045 -0.42548,0.39116 -1.17167,0.51764 -1.65319,0.28024 z"
   id="path3884" /><path
   style="fill:#feecb4;fill-opacity:1;stroke-width:0.612407"
   d="m 680.96911,232.78316 v -17.30051 h -7.15561 c -4.62392,0 -8.36152,-0.33844 -10.56402,-0.9566 -4.10915,-1.15328 -8.56459,-4.26461 -11.08055,-7.7378 -3.8408,-5.30206 -3.70062,-2.31548 -3.51768,-74.9488 l 0.16647,-66.090402 1.6422,-3.50277 c 1.93585,-4.129078 6.30022,-8.998202 10.0187,-11.177376 5.82867,-3.415825 5.96434,-3.423876 54.68145,-3.244538 l 44.78645,0.164868 2.00191,2.001992 2.00189,2.001991 0.1615,63.353415 0.16154,63.35341 -1.79516,2.0094 -1.79516,2.00942 -48.61118,0.3062 c -45.52427,0.28676 -48.71824,0.37637 -50.29713,1.41119 -3.13582,2.05524 -4.07228,4.4472 -4.07481,10.40807 -0.003,5.89831 0.71971,8.03646 3.4363,10.17333 1.48315,1.16664 2.42484,1.27889 10.72937,1.27889 h 9.10352 v -5.20546 -5.20547 h 5.20546 5.20547 v 5.20547 5.20546 l 41.4906,-0.0135 c 38.38703,-0.0126 41.58831,-0.0928 42.79685,-1.07171 0.71842,-0.58195 1.61407,-1.66004 1.99032,-2.39576 0.49037,-0.95889 0.68409,-18.69072 0.68409,-62.61868 0,-60.464447 0.0163,-61.29731 1.2248,-62.505804 1.47138,-1.471378 2.93111,-1.554578 4.763,-0.271478 l 1.36108,0.953338 v 65.551464 c 0,73.41577 0.34294,67.94875 -4.41555,70.39181 -2.17189,1.11506 -4.20528,1.16653 -46.08367,1.16653 h -43.81152 v 17.3005 17.30049 l -2.49806,-3.52132 c -1.37393,-1.93674 -2.59226,-3.52134 -2.70741,-3.52134 -0.11514,0 -1.33347,1.5846 -2.70741,3.52134 l -2.49805,3.52132 z m 68.51807,-65.28825 c 0.50375,-0.60699 0.64842,-15.15853 0.53429,-53.73875 L 749.86494,60.849788 709.2079,60.692287 c -29.52301,-0.114369 -40.88531,0.03196 -41.4906,0.534291 -0.69118,0.57362 -0.83356,9.577924 -0.83356,52.711692 0,34.6875 0.21122,52.41458 0.63396,53.20446 0.61691,1.15271 1.71755,1.18456 40.9563,1.18456 33.23836,0 40.44373,-0.14625 41.01318,-0.83238 z"
   id="path3886" /><path
   style="fill:#e6618e;fill-opacity:1;stroke-width:0.433037"
   d="m 708.05574,272.59933 c -19.55432,-1.52571 -35.69235,-6.02962 -52.39753,-14.62346 -7.72509,-3.97412 -12.63319,-7.0281 -19.05365,-11.85587 -22.56377,-16.96647 -39.20545,-40.62732 -47.57551,-67.6421 -7.85415,-25.34965 -7.79106,-54.01357 0.17395,-79.038298 13.29116,-41.758603 45.48641,-74.122253 86.99076,-87.445781 23.77275,-7.6314066 51.05873,-8.2555605 75.2107,-1.720408 25.12387,6.798128 47.96924,20.895851 64.86124,40.025415 13.07348,14.805251 22.25577,30.969014 27.92092,49.149741 7.50946,24.099521 8.05582,50.463451 1.54449,74.527421 -12.83009,47.41619 -50.68949,84.07427 -98.48548,95.36044 -11.89705,2.80929 -27.9131,4.14275 -39.18989,3.2629 z m -24.52318,-25.05196 c 1.24718,-1.78627 2.42184,-3.24778 2.61034,-3.24778 0.18851,0 1.37771,1.46151 2.64268,3.24778 1.26496,1.78628 2.46447,3.24778 2.66559,3.24778 0.20112,0 0.36566,-7.8921 0.36566,-17.53801 v -17.53802 h 44.30157 44.30156 l 1.97104,-1.25 c 1.31021,-0.8309 2.28233,-1.89304 2.89953,-3.16798 l 0.92847,-1.91798 V 143.89501 78.406894 l -1.06292,-1.062907 c -1.35824,-1.358261 -4.39022,-1.478607 -5.92597,-0.235218 l -1.02229,0.827691 -0.21653,61.93115 c -0.21574,61.7068 -0.21976,61.9355 -1.10935,63.12683 -0.49105,0.65762 -1.42687,1.59439 -2.07958,2.08171 -1.17228,0.87524 -1.6852,0.88805 -42.07282,1.05105 l -40.88607,0.165 -0.12158,-5.57118 -0.12157,-5.57117 -5.52123,-0.12121 -5.52122,-0.1212 v 5.64243 5.64243 l -7.46989,-0.003 c -8.3123,-0.003 -10.06815,-0.31982 -12.21704,-2.20657 -2.33153,-2.04712 -2.95682,-4.27654 -2.76568,-9.86087 0.15274,-4.46234 0.24439,-4.87663 1.46218,-6.60932 2.44454,-3.47816 2.82481,-3.5735 15.57745,-3.90489 6.19245,-0.16091 27.8971,-0.3093 48.23257,-0.32975 35.74302,-0.0359 37.01853,-0.065 38.32382,-0.87333 0.74262,-0.4599 1.73996,-1.48295 2.21629,-2.27346 0.85553,-1.41976 0.86608,-2.20506 0.86608,-64.47584 V 52.617102 l -1.21949,-1.842777 c -0.76731,-1.159471 -1.89131,-2.147793 -3.03127,-2.665351 -1.74199,-0.790709 -3.52117,-0.822464 -46.19811,-0.824379 -49.31236,-0.0022 -47.70261,-0.08906 -53.37501,2.879585 -4.06147,2.125568 -8.28949,6.323208 -10.16758,10.094509 -2.8961,5.815533 -2.73485,1.238041 -2.60934,74.081281 l 0.11373,66.00632 1.00389,2.48584 c 2.06522,5.11381 6.58419,9.62974 11.6563,11.64843 2.2443,0.89322 3.35891,1.00907 11.0486,1.1485 l 8.5525,0.15507 v 17.50552 c 0,9.62803 0.15909,17.5055 0.35354,17.5055 0.19445,0 1.37397,-1.4615 2.62115,-3.24778 z"
   id="path5567" /><path
   style="fill:#c92a56;fill-opacity:1;stroke-width:0.433037"
   d="M 671.03104,114.38835 V 64.589063 h 37.67426 37.67426 v 49.799287 49.79932 H 708.7053 671.03104 Z m 39.65768,31.28438 c 0.77306,-0.66509 0.87425,-1.1422 0.71354,-3.36411 l -0.18728,-2.5891 2.61785,-0.49751 c 2.87345,-0.54608 6.76695,-2.1844 9.2324,-3.88485 l 1.58532,-1.09341 1.73181,1.87879 c 1.63047,1.76886 1.84809,1.86954 3.71939,1.72071 l 1.98757,-0.15808 0.006,-2.01332 c 0.006,-1.82941 -0.15843,-2.15539 -1.80111,-3.56847 l -1.80782,-1.55515 1.59425,-2.58289 c 1.92007,-3.11076 3.11186,-6.13341 3.53753,-8.97193 l 0.31579,-2.10588 2.5437,0.28778 c 2.40959,0.27261 2.59995,0.22385 3.61054,-0.9248 1.36711,-1.5539 1.35735,-2.18965 -0.0563,-3.66513 -1.06976,-1.11659 -1.3239,-1.18269 -3.6233,-0.94236 l -2.47284,0.25847 -0.31673,-2.11203 c -0.42575,-2.83907 -1.61645,-5.8642 -3.52566,-8.95738 l -1.5815,-2.56221 1.82188,-1.575832 c 1.70375,-1.473683 1.81267,-1.702168 1.68008,-3.524506 l -0.1418,-1.948666 -2.00469,-0.129853 c -1.88007,-0.121779 -2.10038,-0.01807 -3.54377,1.668197 l -1.53906,1.798048 -2.54295,-1.569597 c -3.07247,-1.896431 -6.10377,-3.088743 -8.93042,-3.512625 l -2.10432,-0.315563 0.18563,-2.566245 c 0.17879,-2.471868 0.13161,-2.613671 -1.28305,-3.855758 l -1.46868,-1.28951 -1.47923,1.205635 c -1.45489,1.185785 -1.47529,1.249163 -1.23946,3.849455 l 0.23979,2.643819 -1.91584,0.262596 c -2.61525,0.358458 -6.12799,1.722703 -9.20204,3.573795 l -2.56595,1.545146 -1.5218,-1.768736 c -1.37706,-1.600479 -1.71316,-1.768093 -3.53326,-1.762027 l -2.01145,0.0067 -0.21127,1.840409 c -0.1972,1.717818 -0.0844,1.965049 1.69415,3.711707 l 1.90543,1.871305 -0.87852,1.233763 c -1.72535,2.423023 -3.45377,6.453053 -3.99717,9.319923 l -0.55226,2.91353 -2.6178,-0.24437 c -2.58031,-0.24087 -2.63485,-0.22299 -3.80936,1.24897 l -1.19158,1.49334 1.1591,1.51965 1.15908,1.51965 2.69567,-0.27618 2.69567,-0.27618 0.30323,2.28581 c 0.37637,2.8372 1.89986,6.65113 3.70466,9.27431 l 1.3721,1.99428 -1.9313,1.82865 c -1.80337,1.70752 -1.91726,1.94788 -1.71942,3.62876 0.21028,1.78635 0.2269,1.80131 2.17153,1.95598 1.85026,0.14715 2.04868,0.0516 3.55522,-1.71083 l 1.59558,-1.86668 2.54784,1.53423 c 3.06008,1.84268 6.57386,3.20514 9.19128,3.56389 l 1.92323,0.26361 -0.29853,2.57214 c -0.2942,2.53481 -0.27742,2.58979 1.15573,3.7889 1.51956,1.27142 1.83645,1.24366 3.65418,-0.32019 z"
   id="path5571" /><path
   style="fill:#c92a56;fill-opacity:1;stroke-width:0.433037"
   d="m 690.96389,126.09882 c -1.14849,-1.61292 -2.83267,-5.73351 -3.21464,-7.86509 l -0.28091,-1.56758 4.88074,-0.28967 c 2.6844,-0.15932 5.67279,-0.39623 6.64086,-0.52647 1.72727,-0.23238 1.77303,-0.20399 2.45051,1.52071 l 0.69037,1.75751 -4.7281,4.01736 c -2.60045,2.20955 -4.90102,4.07564 -5.11239,4.14685 -0.21136,0.0712 -0.80825,-0.46592 -1.32644,-1.19362 z"
   id="path5573" /><path
   style="fill:#c92a56;fill-opacity:1;stroke-width:0.433037"
   d="m 692.69472,112.57066 c -2.73247,-0.21782 -5.03092,-0.45884 -5.10768,-0.53561 -0.58299,-0.58298 2.1377,-7.62884 3.76351,-9.74648 l 0.81176,-1.05736 4.48242,3.83376 c 2.46533,2.10857 4.72267,4.04951 5.01632,4.3132 0.4206,0.3777 0.37849,0.82232 -0.19849,2.09525 -0.83456,1.84127 -0.28968,1.77308 -8.76784,1.09724 z"
   id="path5575" /><path
   style="fill:#c92a56;fill-opacity:1;stroke-width:0.433037"
   d="m 699.85651,103.07341 c -2.29746,-2.65066 -4.10548,-5.037779 -4.01784,-5.304709 0.33656,-1.025018 6.08534,-3.700777 9.23406,-4.297968 l 1.34736,-0.25554 0.29333,5.281872 c 0.16133,2.905035 0.40451,5.913135 0.54038,6.684675 0.19695,1.11827 0.0838,1.45405 -0.55809,1.6555 -0.44283,0.139 -1.14352,0.43334 -1.55709,0.65413 -0.41357,0.22079 -0.83137,0.40143 -0.92844,0.40143 -0.0971,0 -2.05622,-2.16873 -4.35367,-4.81939 z"
   id="path5577" /><path
   style="fill:#c92a56;fill-opacity:1;stroke-width:0.433037"
   d="m 711.35811,107.18477 -1.46104,-0.63737 0.26225,-2.89986 c 0.14422,-1.59492 0.38763,-4.575229 0.5409,-6.622905 l 0.27866,-3.72304 2.00273,0.359486 c 2.41261,0.433063 8.4983,3.407808 8.4983,4.154061 0,0.561042 -7.99708,10.102968 -8.41646,10.042328 -0.13436,-0.0194 -0.90176,-0.32214 -1.70534,-0.6727 z"
   id="path5579" /><path
   style="fill:#c92a56;fill-opacity:1;stroke-width:0.433037"
   d="m 715.86835,111.54972 c -0.37805,-0.90479 -0.53674,-1.79267 -0.35264,-1.97306 1.43689,-1.40798 9.49318,-8.17478 9.73502,-8.17683 0.82658,-0.007 3.8141,6.38429 4.37439,9.35828 l 0.25428,1.34969 -4.19975,0.28669 c -2.30986,0.15768 -5.30769,0.40226 -6.66185,0.54351 l -2.4621,0.2568 z"
   id="path5581" /><path
   style="fill:#c92a56;fill-opacity:1;stroke-width:0.433037"
   d="m 720.39731,123.45117 c -2.50079,-2.15772 -4.69751,-4.07072 -4.8816,-4.25112 -0.1841,-0.18039 -0.0253,-1.06845 0.3528,-1.97347 l 0.68753,-1.64549 2.89497,0.26176 c 1.59223,0.14397 4.58998,0.38875 6.66168,0.54397 l 3.76669,0.28219 -0.25427,1.34965 c -0.56028,2.97394 -3.54781,9.36522 -4.37438,9.35823 -0.16859,-0.002 -2.35263,-1.768 -4.85342,-3.92572 z"
   id="path5583" /><path
   style="fill:#c92a56;fill-opacity:1;stroke-width:0.433037"
   d="m 710.70504,131.81155 c -0.15591,-2.08038 -0.40127,-5.08524 -0.54524,-6.67747 l -0.26177,-2.89497 1.67708,-0.70474 1.67709,-0.70473 1.08258,1.27103 c 0.59543,0.69907 2.53528,2.9744 4.31077,5.05631 3.09765,3.63222 3.19395,3.81096 2.38172,4.42015 -2.00263,1.50197 -5.68454,3.05961 -8.90691,3.76809 l -1.13184,0.24885 z"
   id="path5585" /><path
   style="fill:#c92a56;fill-opacity:1;stroke-width:0.433037"
   d="m 703.51462,134.91179 c -2.77523,-0.7457 -7.58393,-3.27505 -7.58393,-3.98909 0,-0.59873 8.08622,-10.11248 8.42262,-9.90954 0.13097,0.079 0.89303,0.40112 1.69346,0.71584 1.41965,0.55816 1.44927,0.62117 1.2088,2.57004 -0.13558,1.09882 -0.37863,4.09267 -0.54008,6.653 -0.16147,2.56034 -0.41312,4.64232 -0.55925,4.62666 -0.14612,-0.0157 -1.33485,-0.31579 -2.64162,-0.66691 z"
   id="path5587" /><path
   style="fill:#c92a56;fill-opacity:1;stroke-width:0.153102"
   d="m 707.10663,117.79176 c -2.34368,-1.1679 -2.8898,-3.95059 -1.1542,-5.88101 2.3169,-2.57693 6.50098,-0.95204 6.50098,2.52468 0,2.72447 -2.92729,4.56202 -5.34678,3.35633 z m 2.68039,-2.28875 c 0.50063,-0.50063 0.53408,-0.59233 0.45904,-1.25805 -0.10805,-0.95874 -0.62098,-1.4171 -1.58583,-1.4171 -0.95381,0 -1.58725,0.61032 -1.58725,1.52931 0,0.77959 0.18849,1.15272 0.73108,1.44717 0.73681,0.39985 1.37942,0.3022 1.98296,-0.30133 z"
   id="path5589" /><text
   xml:space="preserve"
   style="font-style:normal;font-variant:normal;font-weight:bold;font-stretch:normal;font-size:231.418px;font-family:'Comic Sans MS';-inkscape-font-specification:'Comic Sans MS Bold';fill:#c92a56;fill-opacity:1;stroke-width:1.02096"
   x="9.7970428"
   y="440.99237"
   id="text362"
   transform="scale(0.99861323,1.0013887)"><tspan
     id="tspan360"
     x="9.7970428"
     y="440.99237"
     style="font-style:normal;font-variant:normal;font-weight:bold;font-stretch:normal;font-size:231.418px;font-family:'Comic Sans MS';-inkscape-font-specification:'Comic Sans MS Bold';stroke-width:1.02096">Abhidhamma</tspan></text><path
   style="fill:#c92a56;fill-opacity:1;stroke-width:0.216519"
   d="m 671.1393,167.5626 c -1.4368,-0.077 -2.70825,-0.25639 -3.00607,-0.42407 l -0.51611,-0.29059 0.12992,-51.77901 c 0.0714,-28.478429 0.20726,-52.164554 0.30177,-52.635814 0.15531,-0.774455 0.25489,-0.876545 1.03573,-1.061848 1.08141,-0.256633 76.47388,-0.320813 78.54021,-0.06685 1.3331,0.163839 1.47597,0.230516 1.62389,0.757816 0.0892,0.317993 0.16219,24.058307 0.16219,52.756246 v 52.17807 l -0.64956,0.3277 c -0.57195,0.28856 -5.09938,0.33035 -37.89078,0.34977 -20.48267,0.0122 -38.36171,-0.038 -39.73119,-0.11142 z m 75.56503,-53.06597 V 64.047767 H 708.7053 670.70626 v 50.448863 50.44885 h 37.99904 37.99903 z"
   id="path5591" /><path
   style="fill:#c92a56;fill-opacity:1;stroke-width:0.216519"
   d="m 669.84019,167.33554 c -0.65497,-0.0873 -1.40583,-0.22754 -1.66859,-0.31165 l -0.47772,-0.15294 0.12155,-41.83064 c 0.14852,-51.111639 0.28055,-63.099557 0.69779,-63.357191 0.54019,-0.333567 19.00163,-0.488154 49.50239,-0.414507 22.91715,0.05534 30.20421,0.134712 30.54932,0.332768 0.40973,0.235143 0.46678,0.525981 0.59454,3.031262 0.0777,1.524141 0.14173,25.153066 0.14221,52.508718 l 8.7e-4,49.73755 -0.48717,0.27828 c -0.39131,0.2235 -8.09218,0.28404 -39.13576,0.30766 -21.25672,0.0162 -39.18448,-0.042 -39.83945,-0.12931 z m 76.86414,-52.83891 V 64.047767 H 708.7053 670.70626 v 50.448863 50.44885 h 37.99904 37.99903 z"
   id="path5731" /><path
   style="fill:#e6618e;fill-opacity:1;stroke-width:0.216519"
   d="M 671.1393,114.38835 V 64.697323 h 37.566 37.566 v 49.691027 49.69106 h -37.566 -37.566 z m 38.88676,31.97262 c 1.48173,-1.07644 1.50032,-1.12775 1.43547,-3.96291 -0.0668,-2.91968 -0.38258,-2.51941 2.44359,-3.09705 2.9588,-0.60475 6.70515,-2.17923 9.23129,-3.87964 l 1.44001,-0.96931 1.71428,1.71429 1.71429,1.71429 h 2.0963 2.09629 v -1.75356 c 0,-1.82838 -0.35721,-2.99271 -1.07516,-3.50451 -0.20304,-0.14474 -0.83702,-0.67693 -1.40883,-1.18266 l -1.03968,-0.9195 1.11568,-1.81929 c 2.28272,-3.72235 3.6413,-7.21432 4.03607,-10.37393 l 0.15253,-1.22088 2.6293,0.13326 2.62929,0.13325 0.82044,-0.90812 c 0.45124,-0.49947 0.91288,-1.15127 1.02587,-1.44845 0.29025,-0.76343 -0.17254,-1.74423 -1.30534,-2.76646 l -0.93026,-0.83947 -2.41939,0.14899 -2.4194,0.14899 -0.26909,-1.75782 c -0.48857,-3.19153 -1.78345,-6.40004 -4.04675,-10.027189 l -0.97176,-1.557317 1.60506,-1.515623 c 0.88278,-0.833599 1.67532,-1.74673 1.76121,-2.02918 0.0858,-0.282455 0.0898,-1.22295 0.008,-2.089985 l -0.14772,-1.576429 -1.66152,-0.145897 c -0.96169,-0.08445 -1.89771,-0.05554 -2.22226,0.06863 -0.3084,0.11799 -1.18575,0.906192 -1.94969,1.751556 l -1.38897,1.537028 -1.55629,-0.968503 c -3.64063,-2.265631 -6.8386,-3.555552 -10.02377,-4.043146 l -1.75542,-0.268723 0.0649,-2.546741 0.0649,-2.546738 -0.86607,-0.896577 c -0.47634,-0.493117 -1.13735,-1.092292 -1.4689,-1.331496 l -0.60283,-0.434919 -0.98836,0.809889 c -1.96007,1.606121 -1.8758,1.395762 -1.73429,4.329352 l 0.12585,2.609242 -1.71079,0.249352 c -3.01244,0.439068 -7.12803,2.11235 -10.46842,4.25617 l -1.25841,0.807633 -0.90678,-1.025226 c -0.49874,-0.56388 -1.02521,-1.191351 -1.16995,-1.39439 -0.50919,-0.714293 -1.67691,-1.075167 -3.47907,-1.075167 h -1.72812 l -0.14746,1.573603 c -0.0917,0.977636 -0.0581,1.808585 0.0884,2.194055 0.12974,0.341249 0.91541,1.321232 1.74591,2.177739 0.83052,0.856498 1.51001,1.613188 1.51001,1.68152 0,0.06834 -0.35147,0.645548 -0.78107,1.282718 -1.69357,2.511879 -3.15065,5.947329 -3.78067,8.913989 -0.23218,1.0933 -0.47326,2.21273 -0.53573,2.48762 -0.11314,0.49796 -0.12278,0.49924 -2.66208,0.35071 l -2.54852,-0.14907 -1.23229,1.38143 c -0.67776,0.7598 -1.23274,1.45638 -1.23327,1.54797 -5.3e-4,0.0916 0.51056,0.85442 1.13575,1.6952 l 1.13673,1.52866 0.97433,-0.12075 c 0.53588,-0.0664 1.76543,-0.18453 2.73231,-0.26247 l 1.75797,-0.14171 0.15944,1.49028 c 0.34199,3.19654 1.84562,7.06385 3.98724,10.25511 l 1.08698,1.61971 -1.83071,1.87083 c -1.66614,1.70267 -1.83023,1.94632 -1.82554,2.71065 0.005,0.90628 0.30614,2.41415 0.52479,2.63281 0.0741,0.0742 0.78904,0.20305 1.5887,0.2865 1.92852,0.20123 2.45172,-0.0439 4.12741,-1.93401 l 1.36808,-1.54313 1.21042,0.77431 c 3.35454,2.14587 7.4655,3.81378 10.48448,4.25381 l 1.74171,0.25385 -0.12181,1.08911 c -0.4517,4.0391 -0.47945,3.6441 0.31999,4.55461 0.85551,0.97438 1.84447,1.62074 2.48151,1.62188 0.25007,4.3e-4 0.83468,-0.27525 1.29912,-0.61265 z"
   id="path5733" /><path
   style="fill:#e6618e;fill-opacity:1;stroke-width:0.216519"
   d="m 691.38988,126.37288 c -1.15447,-1.372 -2.84735,-5.27139 -3.45233,-7.95208 -0.19823,-0.87838 -0.33211,-1.617 -0.2975,-1.64138 0.0346,-0.0243 2.10063,-0.16432 4.59116,-0.31101 2.49052,-0.14667 5.31073,-0.35594 6.26715,-0.46503 2.08584,-0.23788 2.2502,-0.13974 2.96447,1.77019 0.4152,1.11023 0.44185,1.3417 0.18333,1.59239 -1.14929,1.11452 -9.19902,7.68875 -9.41438,7.68875 -0.14751,0 -0.52636,-0.30682 -0.8419,-0.68183 z"
   id="path5735" /><path
   style="fill:#e6618e;fill-opacity:1;stroke-width:0.216519"
   d="m 697.55458,112.84424 c -0.53588,-0.0452 -2.82556,-0.23224 -5.08819,-0.41558 -2.26261,-0.18336 -4.29342,-0.38712 -4.51292,-0.45281 -0.33108,-0.0991 -0.37405,-0.25417 -0.25221,-0.9104 0.41032,-2.21013 3.07706,-8.15127 4.08293,-9.09623 l 0.4992,-0.469 4.8008,4.12099 c 2.64043,2.26654 4.80077,4.21362 4.80077,4.32683 0,0.35454 -1.02309,2.53758 -1.25698,2.68214 -0.31957,0.1975 -1.93574,0.31006 -3.0734,0.21406 z"
   id="path5737" /><path
   style="fill:#e6618e;fill-opacity:1;stroke-width:0.216519"
   d="m 703.03121,106.41019 c -2.9914,-3.19919 -6.99225,-8.095958 -6.99225,-8.558046 0,-0.924004 7.65994,-4.357832 9.72115,-4.357832 h 0.67174 l 0.002,1.353234 c 0.002,1.623979 0.59491,9.997014 0.76416,10.791424 0.14118,0.66272 -0.0163,0.80898 -1.6765,1.55656 l -1.23544,0.55631 -1.25452,-1.34165 z"
   id="path5739" /><path
   style="fill:#e6618e;fill-opacity:1;stroke-width:0.216519"
   d="m 711.73657,107.21758 c -0.71452,-0.30595 -1.38464,-0.6375 -1.48914,-0.7368 -0.1087,-0.10326 0.0269,-2.92874 0.31669,-6.60118 l 0.50671,-6.420648 0.98242,0.144715 c 0.54033,0.07959 1.56703,0.336079 2.28153,0.569973 1.51585,0.496204 5.82266,2.579745 6.59186,3.188998 l 0.52934,0.419259 -0.93126,1.233436 c -1.39647,1.849607 -4.97486,6.112877 -6.311,7.518877 l -1.17805,1.23963 z"
   id="path5741" /><path
   style="fill:#e6618e;fill-opacity:1;stroke-width:0.216519"
   d="m 716.33171,112.30404 c -0.16758,-0.40174 -0.43157,-1.11555 -0.58666,-1.58627 l -0.28197,-0.85584 1.20947,-1.12578 c 1.53898,-1.43247 7.93418,-6.77557 8.4226,-7.03698 0.30469,-0.16306 0.52434,0.0644 1.26329,1.30825 1.13923,1.91762 2.74872,5.87004 3.10952,7.63604 l 0.2785,1.3632 -4.78283,0.35466 c -2.63057,0.19507 -5.58033,0.42632 -6.55504,0.51391 l -1.77221,0.15921 z"
   id="path5743" /><path
   style="fill:#e6618e;fill-opacity:1;stroke-width:0.216519"
   d="m 723.53683,125.92852 c -3.41842,-2.81272 -8.01071,-6.93013 -8.00001,-7.17278 0.006,-0.13944 0.23439,-0.83812 0.50722,-1.55264 0.43687,-1.14412 0.57116,-1.30563 1.12555,-1.35379 0.34623,-0.03 3.31753,0.1648 6.6029,0.43304 l 5.9734,0.48772 -0.27821,1.36318 c -0.50503,2.47449 -3.53992,9.14787 -4.15423,9.13469 -0.0841,-0.002 -0.88348,-0.60454 -1.77662,-1.33942 z"
   id="path5745" /><path
   style="fill:#e6618e;fill-opacity:1;stroke-width:0.216519"
   d="m 710.97875,134.56309 c 0,-0.51924 -0.19937,-3.2697 -0.44303,-6.11212 -0.24368,-2.84241 -0.41419,-5.39951 -0.37892,-5.68243 0.0511,-0.40952 0.36858,-0.64394 1.55734,-1.14975 0.82126,-0.34946 1.51752,-0.60905 1.54724,-0.57686 1.05157,1.13857 7.24224,8.53238 7.64004,9.12483 l 0.56307,0.83862 -0.64185,0.52627 c -1.02936,0.84399 -4.81461,2.6056 -6.81264,3.17052 -3.30178,0.93352 -3.03125,0.94594 -3.03125,-0.13908 z"
   id="path5747" /><path
   style="fill:#e6618e;fill-opacity:1;stroke-width:0.216519"
   d="m 703.80753,134.84035 c -1.14567,-0.34093 -2.89369,-1.01601 -3.88448,-1.50018 -1.8625,-0.91016 -3.88409,-2.12646 -3.88409,-2.33689 0,-0.33199 4.02485,-5.25822 7.19977,-8.81221 l 0.95995,-1.07454 1.35268,0.53324 c 1.53308,0.60438 1.83122,0.98581 1.65646,2.11923 -0.0675,0.43766 -0.2701,2.74441 -0.45028,5.12611 -0.3955,5.2279 -0.54862,6.60995 -0.72954,6.58446 -0.0756,-0.0106 -1.0748,-0.2983 -2.22047,-0.63922 z"
   id="path5749" /><path
   style="fill:#e6618e;fill-opacity:1;stroke-width:0.153102"
   d="m 707.30263,117.74743 c -1.45824,-0.66475 -2.21997,-1.79325 -2.21997,-3.28889 0,-1.66458 1.09216,-3.0849 2.74378,-3.5682 1.56616,-0.45829 3.23323,0.26222 4.02222,1.73839 0.55561,1.03954 0.64644,1.73936 0.35559,2.73985 -0.61519,2.11622 -2.97036,3.25922 -4.90162,2.37885 z m 2.49712,-2.1819 c 0.38529,-0.3767 0.48837,-0.6045 0.48837,-1.07932 0,-0.68392 -0.3287,-1.42237 -0.69583,-1.56325 -0.13631,-0.0523 -0.58981,-0.0951 -1.00777,-0.0951 -1.08102,0 -1.51154,0.44757 -1.51154,1.57135 0,1.17101 0.45313,1.63042 1.61678,1.63913 0.49305,0.004 0.72263,-0.0941 1.10999,-0.47281 z"
   id="path5751" /><path
   style="fill:#c92a56;fill-opacity:1;stroke-width:1.47684"
   d="m 680.55255,216.95415 v -22.0975 h 5.55203 5.55202 v 22.0975 22.09743 h -5.55202 -5.55203 z"
   id="path6120" /><path
   style="fill:#c92a56;fill-opacity:1;stroke-width:0.646883"
   d="m 680.80788,247.92291 c -0.20348,-1.26456 -0.27329,-4.74034 -0.15513,-7.72394 0.11815,-2.98361 0.25377,-8.06929 0.30137,-11.30152 l 0.0866,-5.87679 h 5.20691 5.20688 l 0.0895,7.38365 c 0.0492,4.06102 0.1887,8.19737 0.30992,9.19191 0.12121,0.99453 0.0501,3.81373 -0.15815,6.26489 l -0.37848,4.45666 -2.56632,-2.58698 -2.56632,-2.58699 -2.50339,2.53917 -2.50338,2.53917 z"
   id="path6122" /></svg>
