<?xml version="1.0" encoding="UTF-8" standalone="no"?>
<!-- Generator: Adobe Illustrator 19.0.0, SVG Export Plug-In . SVG Version: 6.00 Build 0)  -->

<svg
   version="1.1"
   id="Calque_1"
   x="0px"
   y="0px"
   viewBox="0 0 870 454"
   xml:space="preserve"
   width="870"
   height="454"
   sodipodi:docname="articles.svg"
   inkscape:version="1.2 (dc2aedaf03, 2022-05-15)"
   inkscape:export-filename="books.svg"
   inkscape:export-xdpi="96"
   inkscape:export-ydpi="96"
   xmlns:inkscape="http://www.inkscape.org/namespaces/inkscape"
   xmlns:sodipodi="http://sodipodi.sourceforge.net/DTD/sodipodi-0.dtd"
   xmlns="http://www.w3.org/2000/svg"
   xmlns:svg="http://www.w3.org/2000/svg"><sodipodi:namedview
   id="namedview17"
   pagecolor="#505050"
   bordercolor="#eeeeee"
   borderopacity="1"
   inkscape:showpageshadow="0"
   inkscape:pageopacity="0"
   inkscape:pagecheckerboard="0"
   inkscape:deskcolor="#505050"
   showgrid="false"
   inkscape:zoom="1.064724"
   inkscape:cx="486.04145"
   inkscape:cy="222.12329"
   inkscape:window-width="1920"
   inkscape:window-height="991"
   inkscape:window-x="-9"
   inkscape:window-y="-9"
   inkscape:window-maximized="1"
   inkscape:current-layer="Calque_1"
   showguides="true"><sodipodi:guide
     position="130.55026,237.98158"
     orientation="1,0"
     id="guide786"
     inkscape:locked="false" /><sodipodi:guide
     position="742.91553,535.71132"
     orientation="1,0"
     id="guide788"
     inkscape:locked="false" /></sodipodi:namedview><defs
   id="defs41" />
<style
   type="text/css"
   id="style2">
	.st0{opacity:0.2;}
</style>


<text
   xml:space="preserve"
   style="font-style:normal;font-variant:normal;font-weight:bold;font-stretch:normal;font-size:231.418px;font-family:'Comic Sans MS';-inkscape-font-specification:'Comic Sans MS Bold';fill:#c92a56;fill-opacity:1;stroke-width:1.02096"
   x="120.7225"
   y="438.61569"
   id="text362"
   transform="scale(0.99861323,1.0013887)"><tspan
     id="tspan360"
     x="120.7225"
     y="438.61569"
     style="font-style:normal;font-variant:normal;font-weight:bold;font-stretch:normal;font-size:231.418px;font-family:'Comic Sans MS';-inkscape-font-specification:'Comic Sans MS Bold';stroke-width:1.02096">Books</tspan></text><g
   id="g95"
   transform="matrix(0.5784381,0,0,0.5784381,288.83314,-1.8967559)"><path
     d="M 512,256.004 C 512,397.341 397.427,512 256.205,512 114.577,512 0,397.341 0,256.004 0,114.668 114.577,0 256.205,0 397.427,0 512,114.668 512,256.004 Z"
     style="clip-rule:evenodd;fill:#54c0eb;fill-rule:evenodd"
     id="path69" /><path
     d="M 403.002,199.864 C 389.08,177.969 389.08,150.493 402.608,128.597 H 147.989 c -19.485,0 -35.398,15.929 -35.398,35.434 0,19.513 16.308,35.434 35.398,35.833 z"
     style="clip-rule:evenodd;fill:#f1f3f7;fill-rule:evenodd"
     id="path71" /><path
     d="m 372.769,217.776 c -2.796,-0.793 -5.576,-1.193 -8.359,-1.193 -86.728,0 -168.272,0 -254.996,0 13.922,21.5 13.922,49.372 0.395,71.271 h 254.203 c 19.49,0 35.402,-15.924 35.402,-35.438 -10e-4,-16.719 -11.526,-30.652 -26.645,-34.64 z"
     style="clip-rule:evenodd;fill:#f1f3f7;fill-rule:evenodd"
     id="path73" /><path
     d="m 403.801,376.238 c -13.528,-21.5 -13.927,-49.37 -0.399,-71.27 H 147.989 c -19.485,0 -35.398,15.924 -35.398,35.438 0,19.509 16.308,35.832 35.398,35.832 z"
     style="clip-rule:evenodd;fill:#f1f3f7;fill-rule:evenodd"
     id="path75" /><path
     d="m 396.629,360.714 c 0,-0.799 -0.395,-1.193 -0.395,-1.996 h -278.08 c 0,0.396 0.398,0.803 0.398,1.197 0.396,0 0.794,0.399 1.205,0.799 z m -1.587,-6.374 c -0.399,-0.794 -0.399,-1.193 -0.399,-1.996 H 114.976 c 0,0.803 0.395,1.202 0.395,1.996 z m -1.192,-6.77 c 0,-0.395 0,-1.193 0,-1.588 H 112.986 c 0.398,0.395 0.398,1.193 0.398,1.588 z m -0.4,-6.37 c 0,-0.794 0,-1.193 0,-1.987 H 112.591 v 0.396 0 0 0 0 0 0 c 0,0.398 0,0.398 0,0.798 v 0 0 0 0 0 0 0 c 0,0.395 0,0.395 0,0.794 v 0 0 0 0 0 0 H 393.45 Z m 0.4,-6.37 c 0,-0.795 0,-1.192 0,-1.987 H 113.385 c 0,0.795 0,1.192 -0.398,1.987 z m 0.793,-6.769 c 0,-0.399 0.399,-1.192 0.399,-1.592 H 115.77 c -0.399,0.399 -0.794,1.192 -0.794,1.592 z m 1.591,-6.371 c 0,-0.798 0.395,-1.192 0.395,-1.99 H 119.347 c -0.398,0.798 -0.794,1.192 -1.192,1.99 z"
     style="clip-rule:evenodd;fill:#e6e9ee;fill-rule:evenodd"
     id="path77" /><path
     d="m 112.591,340.406 c 0,-19.514 15.913,-35.438 35.398,-35.438 H 407.772 V 296.61 H 147.989 c -24.255,0 -44.156,19.509 -44.156,43.796 0,24.682 19.901,44.189 44.156,44.189 h 259.783 v -8.357 H 147.989 c -19.091,0 -35.398,-16.323 -35.398,-35.832 z"
     style="clip-rule:evenodd;fill:#ff7058;fill-rule:evenodd"
     id="path79" /><polygon
     points="188.572,355.932 188.572,408.483 169.082,391.764 148.388,410.075 148.388,355.932 "
     style="clip-rule:evenodd;fill:#324a5e;fill-rule:evenodd"
     id="polygon81" /><path
     d="m 116.563,272.724 c 0.398,-0.794 0.398,-1.193 0.798,-1.988 H 395.44 c -0.398,0.396 -0.398,0.795 -0.798,0.795 0,0.399 -0.394,0.794 -0.793,1.193 z m 1.99,-6.769 c 0,-0.396 0,-1.194 0.396,-1.589 H 398.62 c -0.398,0.395 -0.398,1.193 -0.798,1.589 z m 0.794,-6.371 c 0.411,-0.398 0.411,-1.193 0.411,-1.987 h 280.448 c 0,0.794 0,1.589 -0.395,1.987 z m 0.411,-6.37 c 0,-0.798 0,-1.193 0,-1.992 h 280.848 v 0.399 0 0 0 0 0 0 c 0,0 0,0.399 0,0.794 v 0 0 0 0 0 0 0 c 0,0 0,0.399 0,0.798 v 0 0 0 0 0 0 H 119.758 Z m 0,-6.769 c 0,-0.399 -0.411,-1.194 -0.411,-1.593 h 280.465 c 0.395,0.399 0.395,1.193 0.395,1.593 z m -0.81,-6.374 c -0.396,-0.794 -0.396,-1.194 -0.396,-1.988 h 279.269 c 0,0.794 0.399,1.193 0.798,1.988 z m -1.587,-6.362 c -0.399,-0.803 -0.399,-1.202 -0.798,-1.996 H 393.85 c 0.399,0.794 0.793,1.193 1.192,1.996 z"
     style="clip-rule:evenodd;fill:#e6e9ee;fill-rule:evenodd"
     id="path83" /><polygon
     points="364.409,228.928 364.409,281.479 344.921,265.16 324.226,283.472 324.226,228.928 "
     style="clip-rule:evenodd;fill:#4cdbc4;fill-rule:evenodd"
     id="polygon85" /><path
     d="m 395.836,184.737 c -0.396,-0.798 -0.396,-1.193 -0.794,-1.991 h -278.08 c 0.399,0.399 0.399,0.798 0.794,0.798 0,0.396 0.398,0.794 0.797,1.193 z m -1.986,-6.768 c 0,-0.399 0,-1.194 -0.399,-1.592 H 113.783 c 0.396,0.398 0.396,1.193 0.794,1.592 z m -0.793,-6.374 c 0,-0.396 -0.399,-1.194 -0.399,-1.988 H 112.192 c 0,0.794 0,1.592 0.398,1.988 z m -0.4,-6.37 c 0,-0.794 0,-1.193 0,-1.988 H 111.798 v 0.395 0 0 0 0 0 0 c 0,0 0,0.399 0,0.798 v 0 0 0 0 0 0 0 c 0,0 0,0.395 0,0.794 v 0 0 0 0 0 0 h 280.859 z m 0,-6.769 c 0,-0.395 0.399,-1.194 0.399,-1.589 H 112.591 c 0,0.395 -0.398,1.194 -0.398,1.589 z m 0.793,-6.362 c 0.399,-0.399 0.399,-1.202 0.399,-1.996 H 114.577 c 0,0.794 -0.398,1.597 -0.794,1.996 z m 1.592,-6.375 c 0.398,-0.794 0.398,-1.193 0.794,-1.996 H 118.553 c -0.398,0.803 -0.797,1.202 -1.191,1.996 z"
     style="clip-rule:evenodd;fill:#e6e9ee;fill-rule:evenodd"
     id="path87" /><path
     d="m 399.413,252.416 c 0,19.514 -15.912,35.438 -35.402,35.438 H 104.232 v 8.357 H 364.01 c 24.275,0 44.16,-19.908 44.16,-44.19 0,-24.287 -19.885,-44.195 -44.16,-44.195 H 104.232 v 8.362 H 364.01 c 19.491,0.395 35.403,16.32 35.403,36.228 z"
     style="clip-rule:evenodd;fill:#324a5e;fill-rule:evenodd"
     id="path89" /><path
     d="m 112.591,164.031 c 0,-19.505 15.913,-35.434 35.398,-35.434 h 259.783 v -8.361 H 147.989 c -24.255,-0.396 -43.757,19.513 -43.757,43.795 0,24.286 19.896,44.194 44.155,44.194 H 408.17 v -8.361 H 147.989 c -19.091,-0.399 -35.398,-16.32 -35.398,-35.833 z"
     style="clip-rule:evenodd;fill:#ffd05b;fill-rule:evenodd"
     id="path91" /><polygon
     points="188.572,143.329 188.572,195.885 169.082,179.557 148.388,197.876 148.388,143.329 "
     style="clip-rule:evenodd;fill:#ff7058;fill-rule:evenodd"
     id="polygon93" /></g><path
   style="fill:#e6618e;fill-opacity:1;stroke-width:0.939211"
   d="m 414.87315,292.19188 c -54.86102,-9.01402 -99.47648,-45.93889 -117.26863,-97.05442 -6.38641,-18.34769 -7.64637,-26.43669 -7.64637,-49.09022 0,-17.70922 0.26851,-21.39225 2.1829,-29.9425 C 307.10001,49.293548 362.47039,2.2005773 429.90052,-1.0608531 503.14313,-4.6034184 567.27145,46.110758 581.73955,119.01697 c 1.66883,8.4094 2.10771,13.88666 2.12829,26.56066 0.0274,16.86249 -0.88184,24.25633 -4.79302,38.97724 -13.95646,52.52948 -56.69926,93.36006 -110.66667,105.71569 -9.68026,2.21625 -13.72217,2.62094 -28.64592,2.8681 -11.26356,0.18655 -20.01834,-0.14649 -24.88908,-0.94678 z m -34.28118,-61.61569 c 2.9814,-2.58283 5.64581,-4.69606 5.9209,-4.69606 0.27511,0 2.72833,1.9019 5.4516,4.22645 2.72327,2.32455 5.29366,4.22645 5.71195,4.22645 0.4183,0 0.76055,-2.95852 0.76055,-6.57448 v -6.57447 h 63.39671 63.39671 v -2.70809 c 0,-1.86138 -0.55252,-2.85258 -1.76715,-3.17021 -1.09839,-0.28724 -2.59509,-2.55017 -3.95489,-5.97961 -3.08931,-7.79131 -3.10949,-21.04062 -0.0438,-28.76294 1.57445,-3.96597 2.62497,-5.40047 3.95488,-5.40047 1.38601,0 1.81094,-0.66113 1.81094,-2.81763 v -2.81763 l -10.09651,-0.0715 c -8.77274,-0.0621 -9.72133,-0.21601 -7.23493,-1.17402 9.78629,-3.77063 15.75951,-11.35572 16.95539,-21.53079 1.21879,-10.37 -4.6937,-21.38354 -13.93527,-25.95803 l -4.00329,-1.98159 9.15731,-7.4e-4 9.15728,-7.3e-4 v -2.81763 c 0,-2.08756 -0.43823,-2.81763 -1.69126,-2.81763 -2.24417,0 -5.40388,-6.60064 -6.77239,-14.147489 -1.79664,-9.907862 2.41844,-26.238565 6.77239,-26.238565 1.25303,0 1.69126,-0.730071 1.69126,-2.817631 v -2.817632 h -77.3144 c -88.12958,0 -83.98466,-0.334596 -91.7236,7.404343 -10.06711,10.067111 -10.08689,26.671554 -0.0437,36.714724 1.82913,1.82913 4.80166,4.05241 6.60562,4.94061 l 3.27992,1.61492 -8.6877,0.0214 -8.6877,0.0214 v 2.81763 c 0,1.92297 0.46383,2.81764 1.46078,2.81764 0.85876,0 2.50379,2.22563 3.99164,5.40046 2.24863,4.7982 2.52947,6.50022 2.51832,15.26217 -0.0106,8.32654 -0.35756,10.6293 -2.22888,14.79256 -1.53257,3.40963 -2.76017,4.93086 -3.9791,4.93086 -1.33248,0 -1.76276,0.68776 -1.76276,2.81763 v 2.81763 l 9.62691,0.0207 9.62691,0.0207 -4.22645,1.91093 c -9.53585,4.31151 -15.00272,12.92831 -15.01819,23.67147 -0.0103,7.12625 1.41096,11.3188 5.6523,16.67392 3.0623,3.86647 10.3953,7.92151 16.17517,8.94462 l 3.52203,0.62344 v 6.93955 c 0,3.81668 0.2596,6.93948 0.57688,6.93948 0.31728,0 3.0162,-2.11323 5.9976,-4.69605 z"
   id="path759" /></svg>
